<svg xmlns="http://www.w3.org/2000/svg" viewBox="0 0 488 488"><path d="M450.408 168.648C461.208 158.432 468 144.008 468 128c0-30.88-25.12-56-56-56s-56 25.12-56 56c0 19.648 10.192 36.936 25.544 46.928C370.968 182.136 364 194.264 364 208v56h-32v-40c0-28.624-21.6-52.272-49.36-55.568C293.312 158.232 300 143.896 300 128c0-30.88-25.12-56-56-56s-56 25.12-56 56c0 15.896 6.688 30.232 17.36 40.432C177.6 171.728 156 195.376 156 224v40h-32v-56c0-13.736-6.968-25.864-17.544-33.072C121.808 164.936 132 147.648 132 128c0-30.88-25.12-56-56-56s-56 25.12-56 56c0 16.008 6.792 30.432 17.592 40.648C18.592 171.736 4 188.136 4 208v120c0 19.312 13.768 35.472 32 39.192V488h16V368h72v112c0 4.416 3.584 8 8 8h48c4.416 0 8-3.584 8-8V352h48v120h-32v16h80v-16h-32V352h48v128c0 4.416 3.584 8 8 8h48c4.416 0 8-3.584 8-8V368h72v120h16V367.192c18.232-3.72 32-19.872 32-39.192V208c0-19.864-14.592-36.264-33.592-39.352zM372 128c0-22.056 17.944-40 40-40s40 17.944 40 40-17.944 40-40 40-40-17.944-40-40zm-168 0c0-22.056 17.944-40 40-40s40 17.944 40 40-17.944 40-40 40-40-17.944-40-40zm52.456 56L244 217.216 231.544 184h24.912zM172 224c0-22.056 17.944-40 40-40h2.456l22.056 58.808c1.168 3.12 4.152 5.192 7.488 5.192s6.32-2.072 7.496-5.192L273.544 184H276c22.056 0 40 17.944 40 40v40h-32c-4.416 0-8 3.584-8 8v32h-64v-32c0-4.416-3.584-8-8-8h-32v-40zM36 128c0-22.056 17.944-40 40-40s40 17.944 40 40-17.944 40-40 40-40-17.944-40-40zm136 344h-32V360c0-4.416-3.584-8-8-8H44c-13.232 0-24-10.768-24-24V208c0-13.232 10.768-24 24-24h40c13.232 0 24 10.768 24 24v64c0 4.416 3.584 8 8 8h80v24H84v-72H68v80c0 4.416 3.584 8 8 8h72c13.232 0 24 10.768 24 24v128zm128.896-136H187.104c-1.208-5.896-3.632-11.352-7.12-16H308.016c-3.488 4.648-5.912 10.104-7.12 16zM468 328c0 13.232-10.768 24-24 24h-88c-4.416 0-8 3.584-8 8v112h-32V344c0-13.232 10.768-24 24-24h72c4.416 0 8-3.584 8-8v-80h-16v72H292v-24h80c4.416 0 8-3.584 8-8v-64c0-13.232 10.768-24 24-24h40c13.232 0 24 10.768 24 24v120z"/><path d="M236 264h16v16h-16zM204 0H92c-4.416 0-8 3.584-8 8v40c0 4.416 3.584 8 8 8h32v16c0 3.032 1.712 5.8 4.424 7.16 1.128.56 2.36.84 3.576.84a8.03 8.03 0 004.8-1.6L166.664 56H204c4.416 0 8-3.584 8-8V8c0-4.416-3.584-8-8-8zm-8 40h-32c-1.728 0-3.416.56-4.8 1.6L140 56v-8c0-4.416-3.584-8-8-8h-32V16h96v24zM284 24h16v16h-16zM316 24h16v16h-16zM348 24h16v16h-16z"/></svg>