<?xml version="1.0" encoding="iso-8859-1"?>
<!-- Generator: Adobe Illustrator 19.0.0, SVG Export Plug-In . SVG Version: 6.00 Build 0)  -->
<svg version="1.1" id="Capa_1" xmlns="http://www.w3.org/2000/svg" xmlns:xlink="http://www.w3.org/1999/xlink" x="0px" y="0px"
	 viewBox="0 0 480.005 480.005" style="enable-background:new 0 0 480.005 480.005;" xml:space="preserve">
<g>
	<g>
		<rect x="239.713" y="204.012" transform="matrix(0.7071 -0.7071 0.7071 0.7071 -71.4216 251.5959)" width="56.559" height="16"/>
	</g>
</g>
<g>
	<g>
		<path d="M477.659,354.348L331.315,208.004l82.344-82.344l24-24l30.056-30.056c7.928-7.928,12.288-18.456,12.288-29.656
			c0-23.128-18.816-41.944-41.944-41.944c-11.2,0-21.736,4.36-29.656,12.288l-30.056,30.056l-24,24l-82.344,82.344L125.659,2.348
			c-3.128-3.128-8.184-3.128-11.312,0l-112,112c-3.128,3.128-3.128,8.184,0,11.312l146.344,146.344L26.347,394.348
			c-0.88,0.88-1.536,1.952-1.936,3.128l-24,72c-0.96,2.872-0.208,6.048,1.936,8.184c1.52,1.528,3.568,2.344,5.656,2.344
			c0.848,0,1.696-0.136,2.528-0.408l72-24c1.176-0.392,2.248-1.056,3.128-1.936l122.344-122.344L354.347,477.66
			c1.56,1.56,3.608,2.344,5.656,2.344c2.048,0,4.096-0.784,5.656-2.344l112-112C480.787,362.532,480.787,357.476,477.659,354.348z
			 M419.715,23.604c4.904-4.904,11.416-7.6,18.344-7.6c14.304,0,25.944,11.64,25.944,25.944c0,6.928-2.696,13.44-7.6,18.344
			l-24.4,24.4l-36.688-36.688L419.715,23.604z M384.003,59.316l36.688,36.688l-12.688,12.688l-36.688-36.688L384.003,59.316z
			 M19.315,120.004L120.003,19.316l28.688,28.688l-26.344,26.344l11.312,11.312l26.344-26.344l28.688,28.688l-26.344,26.344
			l11.312,11.312l26.344-26.344l28.688,28.688l-26.344,26.344l11.312,11.312l26.344-26.344l20.688,20.688L160.003,260.692
			L19.315,120.004z M20.651,459.356l14.848-44.544l29.696,29.696L20.651,459.356z M202.347,314.348L80.003,436.692l-12.688-12.688
			L237.659,253.66l-11.312-11.312L56.003,412.692l-12.688-12.688L165.659,277.66l112-112l82.344-82.344l12.688,12.688
			l-42.344,42.344l11.312,11.312l42.344-42.344l12.688,12.688l-82.344,82.344L202.347,314.348z M360.003,460.692L219.315,320.004
			l100.688-100.688l20.688,20.688l-26.344,26.344l11.312,11.312l26.344-26.344l28.688,28.688l-26.344,26.344l11.312,11.312
			l26.344-26.344l28.688,28.688l-26.344,26.344l11.312,11.312l26.344-26.344l28.688,28.688L360.003,460.692z"/>
	</g>
</g>
<g>
	<g>
		<rect x="300.686" y="160.005" transform="matrix(0.7071 -0.7071 0.7071 0.7071 -27.4156 269.823)" width="22.624" height="16"/>
	</g>
</g>
<g>
	<g>
		<path d="M88.003,280.004c-17.648,0-32-14.352-32-32c0-4.416-3.584-8-8-8s-8,3.584-8,8c0,17.648-14.352,32-32,32
			c-4.416,0-8,3.584-8,8c0,4.416,3.584,8,8,8c17.648,0,32,14.352,32,32c0,4.416,3.584,8,8,8s8-3.584,8-8c0-17.648,14.352-32,32-32
			c4.416,0,8-3.584,8-8C96.003,283.588,92.419,280.004,88.003,280.004z M48.003,301.5c-3.552-5.344-8.152-9.944-13.496-13.496
			c5.344-3.552,9.944-8.152,13.496-13.496c3.552,5.344,8.152,9.944,13.496,13.496C56.155,291.556,51.555,296.156,48.003,301.5z"/>
	</g>
</g>
<g>
</g>
<g>
</g>
<g>
</g>
<g>
</g>
<g>
</g>
<g>
</g>
<g>
</g>
<g>
</g>
<g>
</g>
<g>
</g>
<g>
</g>
<g>
</g>
<g>
</g>
<g>
</g>
<g>
</g>
</svg>
