<svg xmlns="http://www.w3.org/2000/svg" viewBox="0 0 480 480"><path d="M440 0H40C17.944 0 0 17.944 0 40v304c0 22.056 17.944 40 40 40h157.76l-12 48H128c-4.424 0-8 3.584-8 8 0 22.056 17.944 40 40 40h160c22.056 0 40-17.944 40-40 0-4.416-3.576-8-8-8h-57.76l-12-48H440c22.056 0 40-17.944 40-40V40c0-22.056-17.944-40-40-40zM288 448h54.632c-3.304 9.312-12.2 16-22.632 16H160c-10.432 0-19.328-6.688-22.632-16H288zm-85.752-16l12-48h51.504l12 48h-75.504zM464 344c0 13.232-10.768 24-24 24H40c-13.232 0-24-10.768-24-24v-8h448v8zm0-24H16V40c0-13.232 10.768-24 24-24h400c13.232 0 24 10.768 24 24v280z"/><path d="M181.656 237.656l-11.312-11.312-32 32a7.991 7.991 0 000 11.312l32 32 11.312-11.312L155.312 264l26.344-26.344zM209.621 291.203l48.018-63.994 12.799 9.604-48.018 63.994zM341.656 258.344l-32-32-11.312 11.312L324.688 264l-26.344 26.344 11.312 11.312 32-32a7.991 7.991 0 000-11.312zM320 96h-12.176a74.964 74.964 0 00-2.888-6.984l8.608-8.616c1.504-1.504 2.344-3.536 2.344-5.656s-.84-4.16-2.344-5.656L290.92 46.456a7.991 7.991 0 00-11.312 0l-8.616 8.608A77.36 77.36 0 00264 52.176V40c0-4.416-3.576-8-8-8h-32c-4.424 0-8 3.584-8 8v12.176a72.007 72.007 0 00-6.984 2.888l-8.616-8.6a7.991 7.991 0 00-11.312 0l-22.624 22.632c-1.504 1.504-2.344 3.536-2.344 5.656s.84 4.16 2.344 5.656l8.608 8.616a72.848 72.848 0 00-2.888 6.984H160c-4.424 0-8 3.584-8 8v32c0 4.408 3.576 7.992 8 7.992h12.176a74.964 74.964 0 002.888 6.984l-8.608 8.616c-1.504 1.504-2.344 3.536-2.344 5.656s.84 4.16 2.344 5.656l22.624 22.632a7.991 7.991 0 0011.312 0l8.616-8.608a72.007 72.007 0 006.984 2.888V200c0 4.416 3.576 8 8 8h32c4.424 0 8-3.584 8-8v-12.176a72.007 72.007 0 006.984-2.888l8.616 8.608a7.991 7.991 0 0011.312 0l22.624-22.632c1.504-1.504 2.344-3.536 2.344-5.656s-.84-4.16-2.344-5.656l-8.608-8.616a72.848 72.848 0 002.888-6.984H320c4.424 0 8-3.584 8-8v-32c0-4.416-3.576-8-8-8zm-8 32h-10.096a7.993 7.993 0 00-7.744 6 55.715 55.715 0 01-5.968 14.4 8.01 8.01 0 001.232 9.72l7.144 7.136-11.312 11.32-7.144-7.136a8 8 0 00-9.728-1.232 55.668 55.668 0 01-14.392 5.952 7.997 7.997 0 00-5.992 7.744V192h-16v-10.096a8.002 8.002 0 00-6-7.744 55.668 55.668 0 01-14.392-5.952c-3.136-1.856-7.152-1.36-9.728 1.232l-7.144 7.136-11.312-11.32 7.144-7.136a8 8 0 001.232-9.72 55.715 55.715 0 01-5.968-14.4 7.984 7.984 0 00-7.736-6H168v-16h10.096a7.993 7.993 0 007.744-6 55.715 55.715 0 015.968-14.4 8.01 8.01 0 00-1.232-9.72l-7.144-7.136 11.312-11.32 7.144 7.136a7.99 7.99 0 009.728 1.232 55.668 55.668 0 0114.392-5.952A7.997 7.997 0 00232 58.096V48h16v10.096a8.002 8.002 0 006 7.744 55.668 55.668 0 0114.392 5.952c3.128 1.848 7.152 1.36 9.728-1.232l7.144-7.136 11.312 11.32-7.144 7.136a8 8 0 00-1.232 9.72 55.715 55.715 0 015.968 14.4 8.002 8.002 0 007.744 6H312v16z"/><path d="M240 80c-22.056 0-40 17.944-40 40s17.944 40 40 40 40-17.944 40-40-17.944-40-40-40zm0 64c-13.232 0-24-10.768-24-24s10.768-24 24-24 24 10.768 24 24-10.768 24-24 24zM128 64h16v16h-16zM96 64h16v16H96zM64 64h16v16H64zM32 64h16v16H32zM32 96h16v16H32zM32 128h16v16H32zM32 160h16v16H32zM32 192h16v16H32zM32 224h16v16H32zM32 256h16v16H32zM64 256h16v16H64zM96 256h16v16H96zM368 256h16v16h-16zM400 256h16v16h-16zM432 256h16v16h-16zM432 224h16v16h-16zM432 192h16v16h-16zM432 160h16v16h-16zM432 128h16v16h-16zM432 96h16v16h-16zM432 64h16v16h-16zM400 64h16v16h-16zM368 64h16v16h-16zM336 64h16v16h-16z"/></svg>