<svg xmlns="http://www.w3.org/2000/svg" viewBox="0 0 512 512"><path fill="#fff" d="M264.75 40.67c2.01-2.52 6.44-2.32 8.2.39 1.06 1.41.9 3.26.99 4.92-.06 28.8-.02 57.61-.03 86.41 5.38-.07 10.83 3.93 10.72 9.64.09 40.83.06 81.67.01 122.51 3.65-1.28 7.51-1.55 11.35-1.42 4.7.15 9.75-.63 14.05 1.76 5.54 2.76 8.39 9.13 7.96 15.15-.32 6.1 1.12 12.95-2.75 18.24-2.9 4.29-8.12 6.6-13.25 6.37-5.8-.09-11.77.6-17.36-1.32.02 2.43.03 4.86.02 7.3 5.89-2.15 12.24-1.25 18.38-1.36 6.64-.21 12.83 4.71 14.43 11.1.89 5.52.44 11.18.36 16.76-.33 7.53-7.35 13.85-14.85 13.58-6.12-.14-12.45.79-18.34-1.32.1 8.22 0 16.43.03 24.65 5.9-1.96 12.19-1.17 18.29-1.28 6.71-.24 13.02 4.79 14.56 11.26.78 4.96.35 10.02.41 15.03.23 5.66-3.21 11.14-8.26 13.62-4.19 2.23-9.08 1.39-13.63 1.56-3.83.12-7.68-.15-11.36-1.26-.01 16.46 0 32.91-.01 49.37 24.15.02 48.29-.06 72.43.03 3.36-.25 5.71 3.54 4.66 6.57-.67 2.47-3.28 3.8-5.71 3.63-66.35.03-132.71-.02-199.06.02-2.07-.08-4.48.15-6.1-1.43-1.6-3.4 1.32-7.66 5.08-7.3 17.13.03 34.26-.03 51.39.02-.02-15.97.01-31.95-.01-47.93-6.89-2.02-12.77-8.41-12.3-15.88.38-6.48-1.35-13.69 2.41-19.47 2.15-3.54 5.94-5.56 9.86-6.54.05-7.2.08-14.41-.01-21.61-6.02-1.91-11.55-6.88-12.12-13.47-.21-5.34-.33-10.72.1-16.05.78-6.25 5.99-11.14 12.05-12.34.01-1.41.01-2.82.02-4.23-4.29-1.49-8.44-4.06-10.53-8.24-2.17-3.67-1.75-8.07-1.8-12.15.08-4.93-.55-10.31 2.28-14.65 2.1-3.71 6.03-5.79 10.04-6.79.11-6.52-.19-13.05.11-19.57.44-7.87 7.63-14.59 15.5-14.54 8.04-.35 15.59 6.49 16.03 14.52.21 6.41.07 12.84.13 19.25 4.6.01 9.2.01 13.81 0-.02-40.42-.02-80.85-.01-121.27-.45-5.97 4.99-10.73 10.77-10.51-.05-28.81.01-57.62-.04-86.43.11-1.78-.15-3.83 1.1-5.3m-2.11 102.18c-.15 8.02.41 16.08-.45 24.07-.12 19.79.02 39.58-.07 59.37 3.91.01 7.83.01 11.74-.01.08-27.81.04-55.62.02-83.43-3.75-.01-7.49-.01-11.24 0m.02 93.71c-.03 10.51-.03 21.01.01 31.52 2.54 2.4 5.02 5.25 5.36 8.89.46 4.97.26 9.99.22 14.98-.08 4.28-2.74 7.87-5.59 10.83.03 3.49-.23 6.99.08 10.48 1.72 2.56 4.36 4.65 4.98 7.84 1.01 5.23.52 10.62.52 15.92.07 4.43-2.51 8.24-5.54 11.22-.06 9.48-.14 18.97.02 28.45 2.7 2.43 5.06 5.54 5.37 9.29.41 4.98.26 10.01.08 15.01-.18 4.05-2.71 7.43-5.46 10.2-.15 17.22-.03 34.44-.06 51.66h11.77c.01-75.44-.01-150.88.01-226.32-3.93-.01-7.85 0-11.77.03m-41.43 4.78c-3.26.91-4.66 4.56-4.66 7.66-.09 5.24.01 10.48.06 15.71 3.87-.02 7.75-.04 11.63.11.13-5.95.12-11.91.04-17.86.29-3.64-3.59-6.75-7.07-5.62m-13.94 33.78c-1.68.98-2.58 2.92-2.47 4.84-.05 4.04-.2 8.1.12 12.13.37 2.83 3.41 4.5 6.08 4.34 13.97.01 27.96.02 41.93-.01 2.65.25 5.35-1.74 5.49-4.47.25-4.31.17-8.64 0-12.95-.03-2.8-2.85-4.81-5.5-4.56-13.66-.06-27.32.04-40.97-.05-1.57.09-3.28-.11-4.68.73m81.1.19c-1.52 1-2.23 2.84-2.17 4.62-.07 3.97-.16 7.97.09 11.94.1 2.41 2.28 4.5 4.7 4.49 3.99.18 8 .19 12-.03 2.71-.02 4.78-2.64 4.64-5.25.08-4.24.27-8.49-.12-12.71-.58-3.49-4.56-4.27-7.52-3.98-3.84.3-8.05-.78-11.62.92m-71.32 30.86v4.09c3.91.01 7.83.01 11.75-.01.02-1.36.04-2.72.07-4.08-3.94-.01-7.88-.01-11.82 0m22.02-.01c-.01 1.37-.01 2.73-.01 4.1 4.6.01 9.2-.01 13.8 0 0-1.36 0-2.72.01-4.07-4.6-.04-9.2-.04-13.8-.03m-30.96 14.14c-1.91.66-3.31 2.58-3.27 4.63-.15 4.02-.14 8.05.01 12.07-.09 3.11 3.16 5.17 6.01 4.99 13.39.04 26.79-.06 40.19.06 1.92-.1 4.19.19 5.71-1.28 2.27-1.89 1.69-5.12 1.8-7.71-.18-3.35.43-6.81-.5-10.06-1.54-3.6-5.88-3.04-9.06-3.03-13.62.3-27.31-.38-40.89.33m81.23.04c-1.84.73-3.13 2.62-3.11 4.61-.14 4.04-.08 8.08.02 12.12-.11 2.53 2.15 4.84 4.67 4.87 4.05.14 8.11.12 12.15-.03 2.55-.02 4.64-2.47 4.55-4.96.1-3.97.14-7.94.02-11.9.15-2.98-2.71-5.36-5.59-5.01-4.23.08-8.54-.45-12.71.3m-72.3 31.4c.04 7.16.04 14.33 0 21.49 3.92 0 7.83 0 11.75-.01.07-7.16.1-14.32.01-21.47-3.92-.02-7.84-.02-11.76-.01m22.01 0c.1 7.16 0 14.33.02 21.49 4.61-.01 9.23-.01 13.84 0-.1-7.16.05-14.32 0-21.49-4.62.01-9.24-.01-13.86 0m-30.9 31.51c-1.95.67-3.37 2.63-3.32 4.71-.13 4-.12 8.01.01 12.01-.08 3.12 3.21 5.19 6.08 4.99 14.05 0 28.11.09 42.17-.02 2.81.23 5.41-2.16 5.37-4.98.07-4.49.36-9.03-.2-13.49-.89-3.11-4.46-3.76-7.25-3.53-14.28.28-28.61-.32-42.86.31m81.13.1c-1.78.75-3.08 2.59-3.04 4.55-.1 4.05-.12 8.12 0 12.18-.07 2.51 2.15 4.8 4.67 4.82 4.06.12 8.14.19 12.2 0 2.46-.08 4.52-2.38 4.51-4.81.15-4.03.09-8.08.01-12.11.14-2.92-2.7-5.31-5.55-4.98-4.26.11-8.6-.4-12.8.35m-72.24 31.37c.09 16.03-.06 32.06.06 48.09 3.91.03 7.83.05 11.75.04-.03-16.04-.01-32.07 0-48.11-3.94-.01-7.88-.02-11.81-.02m22.02 0c.08 16.04-.07 32.09.07 48.13h13.77c0-16.04-.02-32.09.01-48.13-4.62.01-9.23.01-13.85 0z"/></svg>
