<svg xmlns="http://www.w3.org/2000/svg" viewBox="0 0 512 512"><path fill="#fff" d="M254.25 11.11c2.57-1.4 5.95.84 5.75 3.74.03 2.43.6 5.7-1.81 7.25-2.32 1.65-6.03-.05-6.12-2.94-.12-2.71-.81-6.59 2.18-8.05zM254.44 30.5c2.37-1.11 5.54.74 5.46 3.43.2 4.33.35 8.72-.14 13.04-.82 3.6-6.69 3.62-7.51.03-.49-4.35-.33-8.76-.15-13.12 0-1.49.98-2.83 2.34-3.38zM252.22 60.04c.73-3.76 6.93-3.72 7.57.07.51 7.81.08 15.66.2 23.49 7.36 1.82 13.77 7.72 15.06 15.36 1.55 6.76-1.23 13.8-6.05 18.57-.12 16.41-.03 32.82-.05 49.22 11.77 4.46 21.32 14.53 24.32 26.85 3.78 13.96-1.4 29.45-12.28 38.84-.05 36.38-.04 72.76 0 109.15 11.3 9.08 17.99 24.24 15.24 38.7-2.03 13.08-11.02 24.61-22.87 30.38 7.14 14.75 14.13 29.58 21.31 44.31 3.53-.03 7.3-.12 10.37 1.91 5.33 2.93 8.74 9.16 7.92 15.25-.26 3.97-2.78 7.22-5.22 10.16 2.33 5.29 5.32 10.3 7.29 15.75 1.29 3.94-5.06 6.65-7.02 3.01-2.81-4.87-4.85-10.14-7.44-15.12-4.76.45-9.44-.88-13.26-3.73-5.1 3.01-10.22 5.98-15.32 8.99-.48 3.77 1.77 9.98-3.01 11.58-7.99.19-16.01-.14-24.01.12-1.86.25-3.79-.53-4.66-2.26-.59-3.1-.27-6.28-.31-9.4-5.11-2.99-10.22-5.97-15.31-8.99-3.84 2.8-8.49 4.14-13.24 3.69-2.74 5.15-4.7 10.73-7.83 15.66-2.38 2.95-7.89.11-6.64-3.56 1.97-5.45 4.98-10.46 7.29-15.77-3.27-3.63-5.9-8.28-5.2-13.34.71-8.81 9.61-15.32 18.25-13.96 7.17-14.74 14.16-29.56 21.27-44.32-12.25-5.9-21.3-18.05-23.03-31.58-2.15-14.13 4.47-28.67 15.48-37.49.05-36.37.07-72.74-.01-109.11-7.65-6.76-12.81-16.43-13.52-26.66-.89-12.4 4.65-25.13 14.48-32.79 3.32-2.7 7.17-4.61 11.08-6.3-.02-16.38.08-32.77-.05-49.15-4.83-4.8-7.64-11.86-6.07-18.64 1.31-7.61 7.7-13.5 15.04-15.33.19-7.85-.36-15.73.23-23.56m.05 32.18c-4.41 1.56-7.7 6.07-7.43 10.81-.14 4.54 3.1 8.65 7.35 10.03 6.59 2.91 15.31-2.71 14.97-10.05.51-7.6-7.86-13.37-14.89-10.79m-.79 29.8c.01 14.31.01 28.62 0 42.93 3.01-.22 6.03-.21 9.04.01-.02-14.31-.01-28.62 0-42.93-3.01.29-6.03.26-9.04-.01m-20.7 64.79c-4.01 5.94-5.27 13.26-4.8 20.31 4.16 0 8.33 0 12.5.01-1.15-12.68 4.11-26 14.38-33.72-8.93.78-17.3 5.8-22.08 13.4m15.67 20.31c13.19.01 26.38.01 39.57 0 1.59-13.55-6.64-28.02-19.89-32.11-13.19 4.19-21.17 18.63-19.68 32.11m-18.06 8.49c4.47 9.52 13.9 15.74 24.08 17.58-5.44-4.76-9.64-10.81-12.14-17.59-3.98-.01-7.96-.02-11.94.01m20.56 0c3.65 6.89 9.44 13.51 17.2 15.51 7.75-2.25 13.83-8.44 17.45-15.5-11.55-.05-23.1-.04-34.65-.01m-9.51 22.47c.09 6.16.03 12.32.04 18.48 11.04.01 22.07-.01 33.11.01 0-6.19-.06-12.37.05-18.55-10.4 4.97-22.75 4.82-33.2.06m.06 45.04c11.03 0 22.06.01 33.09 0 0-6.19 0-12.37-.02-18.56-11.03.01-22.06 0-33.08 0-.01 6.19 0 12.37.01 18.56m-.01 8c0 6.17 0 12.34-.01 18.52 11.03-.01 22.06.02 33.09-.01.02-6.17.02-12.33.02-18.5-11.04-.02-22.07.01-33.1-.01m-.02 45.27c10.52-4.51 22.61-4.5 33.13 0-.04-6.25-.01-12.5-.02-18.75-11.03.01-22.05-.01-33.08.01-.02 6.25 0 12.49-.03 18.74m-11.84 21.64c4.5.03 8.99.03 13.48.01 2.83-6.34 7.24-11.79 12.45-16.33-10.62.93-20.61 7.02-25.93 16.32m22.32.01c11.45.02 22.91.03 34.37-.01-3.99-6.45-9.93-12.13-17.36-14.21-7.4 1.83-13.07 7.93-17.01 14.22m-25.51 8.37c-.75 4.88-.79 9.89.03 14.77 4.73-.01 9.46-.03 14.19-.01-.68-4.91-.67-9.9.04-14.81-4.75.07-9.51 0-14.26.05m22.5-.01c-1.01 4.86-1 9.88-.03 14.75 13.54.03 27.08-.01 40.62.03.82-4.87.75-9.86.06-14.74-13.55-.11-27.1-.02-40.65-.04m-19.27 23.27c2.93 4.52 6.49 8.74 11.17 11.53 4.45 2.95 9.78 3.96 14.93 5.01-5.29-4.59-9.75-10.12-12.61-16.55-4.49-.02-8.99-.02-13.49.01m22.47 0c4 6.31 9.67 11.98 16.91 14.33 7.42-2.14 13.23-7.95 17.29-14.34-11.4-.01-22.8-.03-34.2.01m-1.65 105.13c5.17 0 10.34 0 15.51-.01-.02-26.98.03-53.95-.03-80.93-5.12.97-10.36 1.13-15.48 0-.01 26.98-.01 53.96 0 80.94m-23.88-36.46c4.57 4.54 6.64 11.15 4.68 17.4 3.59 2.03 7.14 4.13 10.69 6.22.03-18.58.01-37.15.01-55.72-5.15 10.69-10.22 21.42-15.38 32.1m47.43-31.99c-.1 18.52-.01 37.05-.05 55.57 3.58-2.09 7.16-4.21 10.77-6.27-1.95-6.2.15-12.74 4.66-17.24-5.16-10.67-10.26-21.37-15.38-32.06m-63.89 40.82c-1.21 2.21-.47 4.78-.15 7.12 1.93-3.72 3.75-7.49 5.44-11.32-1.93 1.11-4.36 1.97-5.29 4.2m90.39-4.23c1.68 3.85 3.51 7.63 5.45 11.36.35-2.16 1.21-4.48.18-6.58-.78-2.6-3.48-3.62-5.63-4.78m-83.1 14.94c2.26-1.04 4.56-2.42 5.61-4.78 1.16-2.15.16-4.58-.13-6.8-1.99 3.78-3.84 7.63-5.48 11.58m75.78-4.38c1.08 2.15 3.27 3.34 5.34 4.38-1.62-3.94-3.48-7.76-5.48-11.51-.26 2.34-1.17 4.93.14 7.13z"/></svg>
