<svg xmlns="http://www.w3.org/2000/svg" viewBox="0 0 512 512"><g fill="#fff"><path d="M254.46 0h2.79c1.21 1.06 2.86 2.11 2.66 3.97.29 7.04-.03 14.09.1 21.14.01 3.52 1.88 6.62 3.12 9.8 9.88 24.11 19.72 48.23 29.61 72.33 1.2 3.19 3.24 6.2 3.26 9.71.16 7.25-.14 14.51.04 21.76 9.92 12.22 19.63 24.62 29.57 36.83 1.1 1.58 2.83 3.26 2.28 5.38-.53 2.6-4.06 4.12-6.14 2.31-2.34-2.05-4.02-4.7-5.98-7.08-8.58-10.72-17.14-21.44-25.73-32.15-22.7.01-45.4.03-68.09-.01-9.93 12.37-19.85 24.76-29.73 37.17-1.12 1.23-2.28 2.9-4.15 2.85-2.76.19-5.1-3.14-3.67-5.6 1.42-2.51 3.42-4.63 5.2-6.88 8.79-10.96 17.55-21.92 26.37-32.85.33-8.15-.56-16.39.4-24.49 11.47-27.81 22.78-55.7 34.25-83.53.71-1.77 1.31-3.62 1.35-5.54.27-7.07-.27-14.14.11-21.2-.09-1.71 1.34-2.8 2.38-3.92m-28.48 111.94c20.01.11 40.03.01 60.04.06-10.02-24.47-20-48.94-30.04-73.4-9.99 24.45-20 48.9-30 73.34M224 120c0 5.32-.02 10.64.04 15.96 21.31.06 42.62.03 63.93.02-.05-5.33.06-10.66.03-15.99-21.34.04-42.67.02-64 .01z"/><path d="M242.28 80.44c2.86-1.68 6.78 1.25 5.85 4.47-.51 2.76-4.23 4.12-6.37 2.26-2.3-1.58-2.04-5.55.52-6.73zM266.27 80.47c2.5-1.51 6.1.6 5.94 3.53.29 3.19-3.98 5.27-6.39 3.23-2.36-1.58-2.09-5.51.45-6.76zM254.29 88.44c2.89-1.7 6.87 1.34 5.81 4.58-.57 2.68-4.19 3.96-6.29 2.19-2.35-1.57-2.11-5.59.48-6.77zM242.3 96.43c2.85-1.81 6.9 1.43 5.79 4.62-.59 2.66-4.19 3.9-6.29 2.14-2.39-1.54-2.1-5.6.5-6.76zM266.29 96.43c2.55-1.43 6.05.65 5.95 3.59.09 2.86-3.35 4.98-5.85 3.55-2.85-1.25-2.96-5.84-.1-7.14zM224.65 153.52c1.2-1.58 3.34-2.08 5.16-1.3 2.55 2.08 4.59 4.72 7.04 6.92 1.29 1.41 3.23 2.72 3.16 4.87.11 2.8-3.23 4.95-5.73 3.62-2.37-1.67-4.2-3.98-6.27-5.98-2.08 2.01-3.93 4.28-6.31 5.94-3.1 1.84-7.25-2.22-5.31-5.32 2.39-3.22 5.59-5.75 8.26-8.75zM282.1 152.04c1.27.01 2.54.02 3.82.01 2.96 3.39 6.4 6.33 9.33 9.75 2.67 2.96-1.64 7.9-4.96 5.8-2.38-1.66-4.23-3.94-6.3-5.94-2.29 2.09-4.17 4.81-6.98 6.22-3.42 1.17-6.62-3.34-4.27-6.11 2.93-3.41 6.37-6.36 9.36-9.73z"/><path d="M168.03 171.88c-.25-4.53 6.97-5.33 7.8-.91.4 6.99.11 14.02.16 21.03 53.34-.01 106.68-.02 160.02.01-.05-6.69-.1-13.38.03-20.06-.23-3.1 3.81-5.16 6.22-3.24 2.12 1.36 1.7 4.15 1.8 6.31-.2 12.37.11 24.75-.14 37.11.26 4.14-6.13 5.3-7.58 1.54-.78-4.49-.25-9.12-.35-13.67-53.33.03-106.65-.01-159.97.02-.17 4.55.44 9.2-.41 13.68-1.48 3.75-7.74 2.51-7.58-1.55-.07-13.42-.07-26.85 0-40.27z"/><path d="M248.63 173.64c2.74-2.44 4.85-6.62 9.18-5.69 2.97 3.47 6.55 6.36 9.46 9.88 2.47 3-1.58 7.71-4.94 5.79-2.41-1.64-4.27-3.94-6.33-5.97-2.08 2-3.94 4.28-6.32 5.94-2.84 1.65-6.58-1.53-5.57-4.61.86-2.22 2.97-3.62 4.52-5.34zM152.33 210.3c1.3-3.38 6.92-2.88 7.5.72.41 4.31.14 8.65.17 12.98 10.67-.01 21.34-.02 32 0 .18-4.57-.42-9.2.34-13.72 1.3-3.34 6.83-2.86 7.48.69.43 4.32.15 8.69.18 13.03 5.32 0 10.64.01 15.96-.01.16-4.36-.19-8.73.21-13.07.71-3.53 6.15-3.94 7.46-.61.91 4.49.17 9.14.36 13.69 5.33.03 10.66-.06 15.99-.02.06-4.34-.21-8.69.19-13.01.69-3.94 7.05-3.87 7.69.08.4 4.3.02 8.64.14 12.96 5.33-.04 10.67-.06 16.01 0 .07-4.34-.32-8.7.15-13.02.61-3.56 6.18-4.07 7.47-.72.8 4.51.17 9.16.36 13.73 5.34-.08 10.67.03 16.01 0 .12-4.33-.29-8.67.11-12.98.59-3.64 6.18-4.14 7.51-.71.84 4.47.17 9.1.37 13.63 5.33.09 10.67.06 16.01.06.18-4.57-.44-9.21.33-13.73 1.32-3.36 6.94-2.83 7.49.78.42 4.3.15 8.64.18 12.95 10.66-.01 21.33-.01 32 0 .19-4.58-.46-9.25.35-13.77 1.85-4.24 8.67-1.79 7.64 2.7.02 71.38.03 142.77-.01 214.15.47 2.88-2.11 5.37-4.97 4.89-66.04.01-132.09.07-198.13-.01-2.85.47-5.39-2.06-4.9-4.91.03-69.7 0-139.39.01-209.09.06-2.55-.24-5.16.34-7.66m7.66 21.69c.04 64 .01 127.99.02 191.99 10.64-.01 21.28-.04 31.93.01.04-1.69 0-3.37.22-5.03.48-2.64 4.03-3.94 6.13-2.27 2.42 1.61 1.57 4.84 1.77 7.29 5.28-.01 10.56.02 15.84-.03.27-2.26-.47-5.01 1.26-6.81 1.8-1.99 5.52-1.38 6.5 1.15.48 1.85.31 3.8.41 5.7 5.28.02 10.57-.09 15.85-.03.02-1.68-.02-3.35.22-5 .47-2.68 4.1-4.04 6.19-2.26 2.33 1.67 1.49 4.86 1.74 7.3 5.29-.06 10.58-.09 15.86 0 .09-1.91-.08-3.86.41-5.72.98-2.54 4.74-3.12 6.53-1.1 1.67 1.83.94 4.55 1.2 6.8 5.28-.1 10.57.03 15.86 0 .04-1.67 0-3.34.22-4.99.45-2.66 4.01-3.97 6.12-2.31 2.37 1.62 1.57 4.82 1.84 7.26 5.27.04 10.55.05 15.82.04.04-1.67 0-3.34.22-4.99.45-2.69 4.09-3.99 6.18-2.26 2.35 1.63 1.52 4.82 1.73 7.25 10.64-.03 21.29-.02 31.93-.01-.01-63.99-.02-127.98 0-191.96-64-.01-128 .03-192-.02z"/><path d="M170.33 240.35c2.12-1.08 5.02.27 5.52 2.6.35 2.66.13 5.36.15 8.04.03 53-.01 106.01.02 159.02-.03 1.83.07 4.11-1.72 5.23-2.1 1.65-5.57.38-6.15-2.2-.35-2.66-.13-5.35-.15-8.02-.03-53.01.01-106.02-.02-159.02-.09-2.1.08-4.75 2.35-5.65zM338.22 240.37c2.93-1.69 6.37 1.46 5.76 4.56.05 53.35.02 106.7.01 160.05-.08 2.9.32 5.89-.38 8.74-1.49 3.73-7.85 2.43-7.56-1.67-.18-55.69.02-111.39-.1-167.09-.12-1.78.45-3.87 2.27-4.59zM186.33 256.32c1.52-.42 3.11-.31 4.66-.35 44.37.07 88.74-.05 133.11.06 2.6-.11 4.22 2.6 3.89 4.97.03 44.69.01 89.38.02 134.07.43 2.88-2.1 5.37-4.98 4.94-44.69-.03-89.39.03-134.08-.03-2.35.33-5.02-1.29-4.91-3.86-.12-44.72-.01-89.45-.06-134.17-.07-2.07.03-4.78 2.35-5.63m5.69 7.7c-.03 42.66 0 85.31-.01 127.97 42.66-.01 85.32-.02 127.98 0-.02-42.66-.01-85.32 0-127.98-42.65 0-85.31-.03-127.97.01z"/><path d="M246.49 272.76c14.1-2.4 29.1.74 40.89 8.89 12.31 8.29 21.11 21.66 23.68 36.29 2.33 12.32.2 25.37-5.67 36.42-6.8 12.62-18.53 22.62-32.25 26.91-13.54 4.44-28.76 3.38-41.54-2.9-13.99-6.72-24.92-19.51-29.28-34.41-4.74-15.59-2.15-33.19 6.9-46.73 8.37-12.82 22.18-21.88 37.27-24.47m1.07 7.96c-18.32 3.11-33.91 17.76-38.19 35.83-3.62 14.56.05 30.75 9.82 42.16 7.62 9.24 18.84 15.39 30.73 16.87 15.18 2.05 31.13-3.79 41.4-15.16 10.4-11.16 14.91-27.51 11.58-42.42-2.19-10.64-8.23-20.41-16.67-27.23-10.6-8.82-25.13-12.47-38.67-10.05z"/><path d="M252.06 291.9c-.27-3.13 3.79-5.09 6.2-3.22 2.15 1.35 1.66 4.15 1.78 6.31-.11 10.42.07 20.83-.09 31.24 6.91 7.03 13.93 13.95 20.9 20.93 1.52 1.57 3.27 3 4.38 4.92 1.01 2.28-.82 5.2-3.29 5.35-1.78.39-3.11-1.06-4.29-2.12-7.52-7.48-14.95-15.06-22.54-22.47-1.27-1.42-3.42-2.59-3.12-4.79.05-12.05-.09-24.1.07-36.15zM168.01 444.92c-.59-3.13 2.71-6.15 5.7-4.58 2.23.9 2.36 3.53 2.33 5.59-.08 20.37.01 40.74-.04 61.11.29 2.21-1.11 3.93-2.94 4.96h-2.11c-1.87-1-3.26-2.75-2.93-4.98-.05-20.7-.05-41.4-.01-62.1zM184.09 443.86c-.22-3.11 3.82-5.08 6.21-3.17 1.81 1.13 1.66 3.47 1.76 5.33-.12 20.34 0 40.68-.07 61.02.31 2.22-1.1 3.92-2.92 4.96h-2.08c-1.88-.98-3.29-2.7-2.97-4.93-.01-21.07-.14-42.15.07-63.21zM320.07 443.93c-.32-3.22 3.88-5.18 6.28-3.19 2.01 1.4 1.53 4.14 1.7 6.25-.13 20.05.04 40.09-.08 60.13.3 2.21-1.14 3.86-2.94 4.88h-2.09c-2.85-1.21-3.2-4.28-3-7 .16-20.36-.12-40.72.13-61.07zM336.03 443.91c-.25-3.15 3.89-5.27 6.29-3.2 2.04 1.38 1.55 4.14 1.71 6.26-.09 20.03.04 40.06-.06 60.09.3 2.21-1.11 3.91-2.92 4.94h-2.08c-1.85-.98-3.28-2.68-2.99-4.9.03-21.06-.07-42.13.05-63.19zM218.27 464.32c2.5-1.29 5.84.77 5.65 3.63.21 13.04.07 26.11.06 39.17.3 2.19-1.13 3.84-2.9 4.88h-2.09c-1.86-.98-3.29-2.69-2.99-4.92-.04-12.37.01-24.75-.02-37.12.01-2.04 0-4.77 2.29-5.64zM288.06 467.94c-.42-4.6 7.23-5.45 7.74-.88.49 9.63.08 19.29.19 28.94-.08 4.32.36 8.67-.21 12.98-.2 1.47-1.71 2.16-2.72 3.02h-2.07c-1.9-.97-3.32-2.69-2.98-4.94-.02-13.04-.13-26.09.05-39.12zM252.19 491.03c.42-4.08 7.19-3.99 7.62.06.44 5.64.28 11.34.09 16.99.17 1.9-1.52 2.97-2.87 3.92h-1.98c-1.41-.9-3.14-1.95-2.97-3.88-.14-5.69-.28-11.41.11-17.09z"/></g></svg>
