<svg xmlns="http://www.w3.org/2000/svg" viewBox="0 0 512 512"><path fill="#fff" d="M290.59 39.59c3.22-5.33 10.13-7.85 16.07-6.1 4.66 1.24 8.32 5.1 9.9 9.58 1.23 4.56.34 9.32.71 13.96.5 6.35.24 12.72.77 19.07 2.93 39.61 18.05 77.76 40.75 110.16 32.13 45.93 78.34 80.77 128.98 104.05 1.54.71 3.25 1.73 3.39 3.64.59 3.19-3.32 5.74-6.04 3.99-13.75-6.21-27.07-13.38-39.97-21.2.01 15.11.01 30.22 0 45.33 13.96.06 27.93-.09 41.89.06 2.84-.21 4.98 3.18 3.63 5.67-.74 1.86-2.86 2.38-4.67 2.28-150.66.02-301.32.02-451.99 0-3.58-.11-7.23.39-10.75-.36-3.79-1.5-2.5-7.85 1.62-7.59 13.99-.15 27.98 0 41.97-.06-.01-15.07-.03-30.13.01-45.2-12.91 7.79-26.22 14.96-39.98 21.14-2.73 1.63-6.5-.91-5.92-4.05.15-2.21 2.36-3.13 4.06-3.98 31.61-14.55 61.23-33.59 87.02-56.99 25.83-23.51 47.74-51.64 62.51-83.38 10.36-22.21 17.1-46.16 19.34-70.59.71-8.31.51-16.65.88-24.97-.19-5.39-.35-11.52 3.79-15.62 5.64-6.59 17.03-6.11 22.17.85 4.09 4.88 2.93 11.55 3.09 17.41 21.46 0 42.91-.02 64.37.01.3-5.71-1.19-12.13 2.4-17.11m6.23 5.42c-1.17 3.68-.39 7.66-.58 11.45 4.32.01 8.65.01 12.97.01-.23-3.97.77-8.22-.8-11.98-2.32-4.54-9.68-4.22-11.59.52m-93.38.3c-1.25 3.56-.5 7.45-.66 11.15 4.32 0 8.63.01 12.95.05-.16-3.8.81-7.9-.77-11.48-2.25-4.5-9.49-4.31-11.52.28m-.51 19.6c-.3 22.36-.11 44.73-.16 67.09 4.34-.02 8.69-.01 13.04 0 .14-22.36-.34-44.71-.24-67.07-4.21-.03-8.43-.04-12.64-.02m21.04-.22c-.02 7.17-.01 14.34-.01 21.51 6.53-3.71 13.66-6.45 21.14-7.43 14.59-1.74 30.13-.49 42.95 7.28-.01-7.12 0-14.24-.01-21.36h-64.07m72.43.23c.06 22.36-.27 44.71-.17 67.07 4.33.02 8.66.01 13-.01-.05-22.36.12-44.72-.13-67.07-4.23-.01-8.47-.01-12.7.01m-72.61 30.91c.03 12.05 0 24.11.01 36.17 21.47-.02 42.93.02 64.4-.02 0-12.05.01-24.1-.01-36.15-6.03-4.26-12.89-7.37-20.17-8.71-15.1-2.51-31.7-.74-44.23 8.71m-29.07 21.74c-5.26 20.51-14.18 39.98-24.95 58.15-1.5 2.5-.9 5.54-1.03 8.31.06 46.01.01 92.03.03 138.04 8.67.01 17.33.01 26 0-.03-68.17.01-136.33-.05-204.5m122.5 204.5c8.67.01 17.34.01 26.01 0 .01-47.35-.02-94.69.01-142.04.33-3.64-2.28-6.45-3.85-9.47-9.48-16.8-17.29-34.67-22.11-53.38-.14 68.29-.05 136.59-.06 204.89M202.77 140v67.16c4.34.01 8.67 0 13.01 0 .22-22.39-.35-44.76-.19-67.14-4.28-.03-8.55-.03-12.82-.02m21.19 0v21.54c6.18-3.52 12.91-6.14 19.96-7.23 14.94-2 30.95-.86 44.13 7.09-.01-7.14 0-14.27-.01-21.4-21.36.01-42.72 0-64.08 0m72.43.02c.09 22.38-.29 44.76-.15 67.14 4.33.01 8.66.01 12.99 0V140c-4.28-.01-8.56.01-12.84.02m-72.55 31.07c-.08 12.1-.02 24.21-.04 36.31 21.47 0 42.93.01 64.4 0-.02-12.08.05-24.17-.04-36.25-5.79-4.05-12.32-7.07-19.26-8.51-15.34-2.77-32.22-1.02-45.06 8.45m-84.25 45.48c-1.07 1.26-2.38 2.6-2.14 4.41-.02 33.69-.01 67.39 0 101.09 7.76.01 15.53 0 23.3 0 .06-44.16-.05-88.31.05-132.47a255.372 255.372 0 0 1-21.21 26.97m211.62-27.21c.06 44.24.01 88.47.02 132.71 7.78 0 15.56.01 23.33-.01 0-33.71 0-67.43.01-101.14.24-1.8-.98-3.2-2.08-4.44-7.69-8.55-14.84-17.6-21.28-27.12m-127.24 26.06c-.02 7.17 0 14.33-.01 21.5 6.24-3.55 13.05-6.16 20.16-7.25 14.88-2 30.81-.83 43.93 7.09-.02-7.12.02-14.23-.03-21.35-21.35.01-42.7-.02-64.05.01m-21.19.24c-.02 35.45-.01 70.89-.01 106.34 4.34.01 8.69.01 13.03-.01.08-35.45-.09-70.9-.24-106.34-4.26 0-8.52 0-12.78.01m93.45 106.31c4.33.02 8.67.04 13 .03V215.65c-4.28.01-8.55 0-12.83-.01-.12 35.45-.22 70.89-.17 106.33m86.28-94.78c.12 31.63.02 63.25.06 94.88 7.76.01 15.52.01 23.28 0 .02-24.41-.07-48.83.04-73.24-8.01-6.97-16.04-13.95-23.38-21.64m-276.38 21.76c.06 24.37.02 48.75.02 73.12 7.76.01 15.52.01 23.28 0 .03-31.56-.05-63.13.05-94.69-7.34 7.66-15.32 14.65-23.35 21.57m118.71-3.13c-1.49.83-.88 2.8-1.07 4.18.07 24.02.01 48.05.03 72.07 21.47.01 42.93.01 64.4 0-.03-24.7.06-49.4-.04-74.1.25-1.5-1.17-2.24-2.18-2.94-8.82-5.75-19.42-8.45-29.91-8.13-10.99-.36-22.2 2.53-31.23 8.92M74.85 271.83c0 16.74-.01 33.49 0 50.24 7.77.01 15.53.01 23.3 0 .02-22.28-.02-44.57.01-66.85-7.53 5.87-15.35 11.34-23.31 16.61m338.99-16.74c.02 22.32 0 44.65.01 66.98 7.76.01 15.53.01 23.3 0 .04-16.76-.06-33.52.05-50.28-7.93-5.37-15.83-10.79-23.36-16.7zM21.18 345.05c.67-2.01 2.87-2.78 4.81-2.62 52.68.01 105.36-.01 158.04.01 13.66-.46 27.33-.18 41-.25 29.97.71 59.95-.14 89.93-.01 25.69.51 51.39.14 77.08.26 31-.02 62.01.03 93.01-.03 1.74.06 3.88-.12 5.07 1.46 1.85 2.01.81 5.72-1.88 6.37-2.71.42-5.48.15-8.21.2-51.49 0-102.97-.01-154.46.01-.1 7.14.17 14.29-.12 21.42-.35 4.8-4.69 8.03-9.16 8.77-.02 13.68.02 27.37-.02 41.05 4.41.84 8.73 3.99 9.1 8.77.33 6.41 0 12.83.11 19.24 53.86.03 107.72.01 161.58.02 2.52-.39 5.18 1.52 4.9 4.23.07 6.7.11 13.41 0 20.11.27 2.72-2.41 4.58-4.92 4.22-154.04.01-308.07 0-462.1 0-2.52.39-5.18-1.52-4.9-4.22-.07-6.71-.12-13.43 0-20.14-.27-2.72 2.41-4.57 4.93-4.2 53.85-.02 107.7.02 161.55-.02.1-6.42-.22-12.85.11-19.26.39-4.79 4.7-7.9 9.11-8.75-.05-13.68-.01-27.37-.03-41.05-4.43-.79-8.75-4.02-9.09-8.79-.28-7.13-.01-14.28-.12-21.41-53.78-.02-107.56.04-161.34-.03-2.76.25-5.05-2.77-3.98-5.36m210.83 5.38c-.15 7.23.25 14.47-.16 21.69-.44 4.7-4.77 7.7-9.08 8.58.08 13.66 0 27.32.04 40.98 4.18.87 8.4 3.68 9 8.21.47 6.6.04 13.22.22 19.83 15.97 0 31.95-.01 47.92 0 .13-6.59-.29-13.2.21-19.78.58-4.56 4.81-7.43 9.03-8.25-.01-13.7.06-27.39-.03-41.09-4.37-.73-8.62-3.89-9.02-8.57-.38-7.19-.02-14.4-.16-21.61-15.99.04-31.98.02-47.97.01m-37.72 17.52c.05 1.42-.1 2.94.65 4.23 9.06.04 18.13-.13 27.19.05 1.89.35 1.62-2.04 1.72-3.18.05-6.12-.06-12.24 0-18.36-9.84-.02-19.68-.01-29.52-.03-.04 5.76 0 11.52-.04 17.29m93.49-17.27c.29 7.05-.64 14.24.44 21.2 3.77.97 7.84-.05 11.73.26 5.62-.3 11.35.55 16.9-.21 1.01-6.99.14-14.18.42-21.25-9.83.01-19.66-.03-29.49 0m-84.05 29.97c-.01 13.76-.01 27.51-.01 41.26h11.08c0-13.75-.02-27.5 0-41.25-3.69-.01-7.38-.02-11.07-.01m93.49.01c-.03 13.74-.02 27.49-.01 41.23 3.69.01 7.38.02 11.07.02 0-13.75 0-27.5-.01-41.26-3.68 0-7.37 0-11.05.01m-102.14 49.58c-1.35 6.3-.15 12.99-.59 19.44 9.83.09 19.67 0 29.5.05-.09-6.23.22-12.46-.13-18.67-.22-.24-.67-.71-.9-.95-9.28-.11-18.61-.36-27.88.13m93.27.2c-.93 6.35-.14 12.85-.39 19.26 9.85.05 19.7-.02 29.54.03-.39-6.47.84-13.24-.6-19.53-6.62-.51-13.28-.03-19.91-.21-2.87.13-5.87-.43-8.64.45M28 457.72c0 4.18-.01 8.37.01 12.56H484c0-4.19 0-8.37-.01-12.56H28z"/></svg>
