<?xml version="1.0" encoding="utf-8"?>
<!-- Generator: Adobe Illustrator 21.0.0, SVG Export Plug-In . SVG Version: 6.00 Build 0)  -->
<svg version="1.1" baseProfile="basic" id="Layer_1"
	 xmlns="http://www.w3.org/2000/svg" xmlns:xlink="http://www.w3.org/1999/xlink" x="0px" y="0px" viewBox="0 0 271 46"
	 xml:space="preserve">
<style type="text/css">
	.st0{display:none;}
	.st1{display:inline;fill:#222222;}
	.st2{font-family:'Gotham-Black';}
	.st3{font-size:37.9826px;}
	.st4{letter-spacing:-1;}
	.st5{font-family:'GothamLight';}
	.st6{font-size:12px;}
</style>
<g class="st0">
	<path class="st1" d="M63.8,8.9l131.7,54.5v34L63.8,151.7v-40.2l80.5-31.2L63.8,49C63.8,49,63.8,8.9,63.8,8.9z"/>
</g>
<g class="st0">
	<path class="st1" d="M195.6-46.9L115-15.5l80.5,31.2v40.2L63.9,1.4v-34L195.6-87V-46.9z"/>
</g>
<g>
	<path d="M18.2,37.9c-3.8,0-7.1-1.3-9.7-3.9c-2.7-2.6-4-5.9-4-9.8v-0.1c0-3.9,1.3-7.2,4-9.8c2.7-2.7,6-4,10-4
		c4.9,0,8.6,1.8,11.3,5.5l-5.5,4.3C22.5,18,20.6,17,18.4,17c-1.8,0-3.3,0.7-4.5,2c-1.2,1.4-1.8,3-1.8,5v0.1c0,2,0.6,3.7,1.8,5.1
		c1.2,1.4,2.7,2,4.6,2c1.3,0,2.4-0.3,3.3-0.8c0.9-0.5,1.8-1.3,2.7-2.4l5.5,4c-1.4,1.9-3,3.4-4.9,4.4C23.2,37.4,20.9,37.9,18.2,37.9z
		"/>
	<path d="M41.6,37.8c-5,0-9.2-1.5-12.5-4.4l4.1-4.9c2.7,2.1,5.5,3.2,8.6,3.2c2,0,3-0.6,3-1.8v-0.1c0-0.6-0.3-1-0.9-1.4
		c-0.6-0.4-1.8-0.8-3.6-1.2c-1.6-0.4-3-0.8-4-1.1c-1.1-0.4-2.1-0.9-3.1-1.5c-1-0.6-1.7-1.4-2.2-2.4c-0.5-0.9-0.7-2.1-0.7-3.4v-0.1
		c0-2.5,0.9-4.6,2.8-6.1c1.9-1.6,4.4-2.4,7.5-2.4c4.4,0,8,1.2,10.9,3.5L48,19.1c-2.5-1.7-5-2.6-7.4-2.6c-0.9,0-1.5,0.2-2,0.5
		c-0.5,0.3-0.7,0.7-0.7,1.2v0.1c0,0.6,0.3,1.1,0.9,1.4s1.8,0.7,3.7,1.1c3.3,0.7,5.8,1.7,7.4,2.9c1.6,1.2,2.5,3,2.5,5.4v0.1
		c0,2.7-1,4.8-2.9,6.3C47.5,37.1,44.9,37.8,41.6,37.8z"/>
	<path d="M64.5,37.8c-5,0-9.2-1.5-12.5-4.4l4.1-4.9c2.7,2.1,5.5,3.2,8.6,3.2c2,0,3-0.6,3-1.8v-0.1c0-0.6-0.3-1-0.9-1.4
		c-0.6-0.4-1.8-0.8-3.6-1.2c-1.6-0.4-3-0.8-4-1.1c-1.1-0.4-2.1-0.9-3.1-1.5c-1-0.6-1.7-1.4-2.2-2.4c-0.5-0.9-0.7-2.1-0.7-3.4v-0.1
		c0-2.5,0.9-4.6,2.8-6.1c1.9-1.6,4.4-2.4,7.5-2.4c4.4,0,8,1.2,10.9,3.5l-3.7,5.2c-2.5-1.7-5-2.6-7.4-2.6c-0.9,0-1.5,0.2-2,0.5
		c-0.5,0.3-0.7,0.7-0.7,1.2v0.1c0,0.6,0.3,1.1,0.9,1.4s1.8,0.7,3.7,1.1c3.3,0.7,5.8,1.7,7.4,2.9c1.6,1.2,2.5,3,2.5,5.4v0.1
		c0,2.7-1,4.8-2.9,6.3C70.4,37.1,67.8,37.8,64.5,37.8z"/>
	<path d="M83.4,37.4l11.3-26.8h7.1l11.3,26.8h-7.9l-1.9-4.7H93.1l-1.9,4.7H83.4z M95.2,26.9h6l-3-7.6L95.2,26.9z"/>
	<path d="M120.9,37.6L112,10.8h7.8l4.6,15.4l5.1-15.5h6.3l5.1,15.5l4.6-15.4h7.6l-8.9,26.8H138l-5.4-15.3l-5.3,15.3H120.9z"/>
	<path d="M152.2,37.4l11.3-26.8h7.1L182,37.4h-7.9l-1.9-4.7h-10.3l-1.9,4.7H152.2z M164,26.9h6l-3-7.6L164,26.9z"/>
	<path d="M182.7,37.4V10.8h12.6c3.9,0,6.8,1,8.7,2.9c1.6,1.5,2.4,3.6,2.4,6.2v0.1c0,3.9-1.8,6.6-5.5,8.2l6.3,9.3h-8.5l-5.4-8.1h-0.1
		H190v8.1H182.7z M190,23.5h4.9c1.2,0,2.2-0.3,2.9-0.8c0.7-0.6,1-1.3,1-2.3v-0.1c0-1-0.3-1.8-1-2.4c-0.7-0.5-1.7-0.8-2.9-0.8H190
		V23.5z"/>
	<path d="M208.1,37.4V10.8h10.3c4.7,0,8.3,1.2,11,3.6c2.7,2.4,4,5.6,4,9.5V24c0,3.9-1.4,7.1-4.1,9.6c-2.7,2.5-6.4,3.7-11.1,3.7
		H208.1z M215.4,30.8h3c2.2,0,4-0.6,5.3-1.8c1.3-1.2,2-2.8,2-5V24c0-2.1-0.7-3.7-2-4.9c-1.3-1.2-3.1-1.8-5.3-1.8h-3V30.8z"/>
	<path d="M245.7,37.8c-5,0-9.2-1.5-12.5-4.4l4.1-4.9c2.7,2.1,5.5,3.2,8.6,3.2c2,0,3-0.6,3-1.8v-0.1c0-0.6-0.3-1-0.9-1.4
		c-0.6-0.4-1.8-0.8-3.6-1.2c-1.6-0.4-3-0.8-4-1.1s-2.1-0.9-3.1-1.5c-1-0.6-1.7-1.4-2.2-2.4c-0.5-0.9-0.7-2.1-0.7-3.4v-0.1
		c0-2.5,0.9-4.6,2.8-6.1c1.9-1.6,4.4-2.4,7.5-2.4c4.4,0,8,1.2,10.9,3.5l-3.7,5.2c-2.5-1.7-5-2.6-7.4-2.6c-0.9,0-1.5,0.2-2,0.5
		c-0.5,0.3-0.7,0.7-0.7,1.2v0.1c0,0.6,0.3,1.1,0.9,1.4c0.6,0.4,1.8,0.7,3.7,1.1c3.3,0.7,5.8,1.7,7.4,2.9c1.6,1.2,2.5,3,2.5,5.4v0.1
		c0,2.7-1,4.8-2.9,6.3C251.5,37.1,248.9,37.8,245.7,37.8z"/>
</g>
<g>
	<path d="M263,19.1c-2.4,0-4.3-2-4.3-4.3c0-2.4,1.9-4.4,4.4-4.4s4.3,2,4.3,4.3C267.3,17.2,265.4,19.1,263,19.1z M263,10.8
		c-2.3,0-4,1.8-4,4c0,2.2,1.7,4,4,4c2.3,0,4-1.8,4-4C267,12.6,265.3,10.8,263,10.8z M263.7,15l1.5,1.8h-0.7l-1.4-1.8h-1.3v1.8h-0.5
		v-4.4h2c0.9,0,1.6,0.5,1.6,1.3C264.9,14.5,264.4,14.9,263.7,15z M263.3,13h-1.4v1.7h1.4c0.7,0,1.2-0.3,1.2-0.9
		C264.4,13.3,263.9,13,263.3,13z"/>
</g>
<text transform="matrix(1 0 0 1 3 37.3721)" class="st0 st2 st3 st4">CSS AWARDS</text>
<text transform="matrix(1 0 0 1 258 19)" class="st0 st5 st6">®</text>
</svg>
