<?xml version="1.0" encoding="UTF-8" standalone="no"?><!-- Generator: Gravit.io --><svg xmlns="http://www.w3.org/2000/svg" xmlns:xlink="http://www.w3.org/1999/xlink" style="isolation:isolate" viewBox="0 0 512 512"><defs><clipPath id="_clipPath_xIPYFRZ1FN8RJE15PGXnKUKtcV2xfCz7"><rect width="512" height="512"/></clipPath></defs><g clip-path="url(#_clipPath_xIPYFRZ1FN8RJE15PGXnKUKtcV2xfCz7)"><g><g opacity="0.05"><ellipse vector-effect="non-scaling-stroke" cx="58.757618115739426" cy="259.4085677743413" rx="58.75761811573943" ry="8.063367812878582" fill="rgb(0,0,0)"/></g><g><path d=" M 456.439 181.757 C 456.37 169.759 464.526 159.274 476.172 156.39 C 487.818 153.505 499.925 158.971 505.463 169.614 L 495.921 172.715 C 492.036 166.95 484.902 164.312 478.2 166.163 C 471.499 168.015 466.731 173.941 466.357 180.883 C 465.982 187.825 470.086 194.23 476.549 196.791 C 483.012 199.352 490.389 197.496 494.871 192.182 L 489.194 193.112 L 482.299 186.218 L 497.138 183.832 L 512 181.447 L 509.614 196.285 L 507.229 211.124 L 500.144 204.062 L 500.811 199.983 C 493.39 207.423 482.217 209.659 472.503 205.649 C 462.79 201.638 456.449 192.17 456.439 181.661 L 456.439 181.757 Z  M 156.21 189.486 C 156.088 192.281 156.671 195.062 157.904 197.574 C 159.039 199.786 160.672 201.705 162.675 203.18 C 164.769 204.701 167.133 205.81 169.641 206.448 C 172.302 207.162 175.045 207.523 177.8 207.522 C 180.872 207.579 183.935 207.177 186.889 206.329 C 189.286 205.652 191.53 204.518 193.497 202.989 C 195.229 201.604 196.61 199.83 197.529 197.812 C 198.439 195.779 198.903 193.575 198.888 191.347 C 198.989 188.89 198.34 186.461 197.028 184.381 C 195.94 182.633 194.493 181.136 192.781 179.992 C 191.239 178.937 189.54 178.132 187.748 177.606 C 186.463 177.181 185.157 176.822 183.835 176.532 L 176.082 174.552 C 174.51 174.174 172.97 173.672 171.478 173.049 C 170.603 172.699 169.843 172.113 169.283 171.356 C 168.876 170.628 168.678 169.803 168.71 168.97 C 168.675 168.02 168.924 167.082 169.426 166.274 C 169.895 165.577 170.495 164.978 171.192 164.509 C 171.925 164.043 172.731 163.704 173.577 163.507 C 174.463 163.318 175.367 163.222 176.273 163.221 C 177.568 163.179 178.863 163.275 180.138 163.507 C 181.246 163.714 182.306 164.127 183.263 164.724 C 184.177 165.308 184.911 166.134 185.386 167.109 C 185.975 168.207 186.317 169.42 186.388 170.664 L 197.171 170.664 C 197.256 168.071 196.673 165.499 195.477 163.197 C 194.427 161.158 192.896 159.405 191.016 158.092 C 189.043 156.729 186.822 155.764 184.479 155.253 C 182 154.625 179.451 154.313 176.893 154.322 C 174.587 154.326 172.293 154.639 170.07 155.253 C 167.882 155.83 165.814 156.791 163.963 158.092 C 162.17 159.35 160.665 160.977 159.55 162.863 C 158.42 164.93 157.86 167.26 157.927 169.614 C 157.872 171.677 158.314 173.722 159.216 175.578 C 160.081 177.158 161.267 178.54 162.699 179.634 C 164.154 180.753 165.76 181.66 167.47 182.329 C 169.281 183.006 171.129 183.579 173.005 184.047 C 174.841 184.572 176.678 185.049 178.468 185.455 C 180.091 185.844 181.685 186.346 183.239 186.958 C 184.505 187.432 185.665 188.154 186.65 189.081 C 187.561 189.948 188.056 191.164 188.01 192.421 C 188.049 193.569 187.696 194.697 187.008 195.617 C 186.36 196.418 185.546 197.069 184.622 197.526 C 183.611 198.012 182.534 198.349 181.426 198.528 C 180.366 198.665 179.298 198.737 178.229 198.742 C 176.764 198.79 175.298 198.662 173.863 198.361 C 172.575 198.018 171.351 197.471 170.237 196.739 C 169.234 195.96 168.419 194.965 167.852 193.828 C 167.198 192.485 166.878 191.003 166.921 189.51 L 156.21 189.486 Z  M 279.975 168.016 L 286.369 186.624 L 273.248 186.624 L 279.975 168.016 Z  M 255.356 205.708 L 255.356 155.634 L 239.659 155.634 L 228.303 190.488 L 216.375 155.634 L 200.773 155.634 L 200.773 206.305 L 211.198 206.305 L 211.341 170.664 L 223.77 206.233 L 232.359 206.233 L 244.931 170.306 L 244.931 206.305 L 266.401 206.305 L 270.385 195.021 L 289.327 195.021 L 293.144 206.305 L 304.714 206.305 L 285.725 155.634 L 274.298 155.634 L 255.356 205.708 Z  M 301.16 189.51 C 301.045 192.307 301.636 195.088 302.877 197.597 C 304.015 199.808 305.648 201.727 307.648 203.204 C 309.745 204.716 312.108 205.817 314.614 206.448 C 317.275 207.163 320.018 207.523 322.773 207.522 C 325.845 207.576 328.909 207.174 331.862 206.329 C 334.26 205.652 336.504 204.518 338.471 202.989 C 340.213 201.608 341.603 199.834 342.526 197.812 C 343.432 195.778 343.887 193.573 343.862 191.347 C 343.973 188.892 343.332 186.462 342.025 184.381 C 340.93 182.631 339.474 181.135 337.755 179.992 C 336.213 178.937 334.514 178.132 332.721 177.606 C 331.437 177.179 330.131 176.821 328.809 176.532 L 321.079 174.552 C 319.498 174.151 317.95 173.624 316.451 172.978 C 315.578 172.627 314.818 172.04 314.257 171.284 C 313.85 170.557 313.652 169.731 313.684 168.898 C 313.649 167.949 313.898 167.01 314.4 166.203 C 314.867 165.504 315.467 164.905 316.165 164.437 C 316.898 163.97 317.704 163.632 318.551 163.435 C 319.437 163.247 320.34 163.151 321.246 163.149 C 322.512 163.138 323.775 163.258 325.016 163.507 C 326.124 163.714 327.184 164.127 328.141 164.724 C 329.053 165.31 329.787 166.135 330.264 167.109 C 330.866 168.205 331.224 169.417 331.314 170.664 L 342.097 170.664 C 342.176 168.069 341.584 165.497 340.379 163.197 C 339.332 161.156 337.8 159.403 335.918 158.092 C 333.945 156.728 331.725 155.763 329.381 155.253 C 326.89 154.655 324.333 154.375 321.771 154.418 C 319.466 154.422 317.171 154.735 314.948 155.348 C 312.761 155.925 310.693 156.886 308.841 158.187 C 307.055 159.447 305.558 161.073 304.452 162.958 C 303.322 165.025 302.762 167.355 302.83 169.71 C 302.772 171.772 303.214 173.818 304.118 175.674 C 304.984 177.253 306.17 178.634 307.601 179.729 C 309.058 180.845 310.664 181.753 312.372 182.425 C 314.184 183.1 316.031 183.673 317.907 184.143 C 319.744 184.667 321.58 185.144 323.37 185.55 C 324.993 185.938 326.588 186.441 328.141 187.053 C 329.408 187.527 330.568 188.248 331.552 189.176 C 332.452 190.049 332.937 191.264 332.888 192.516 C 332.923 193.664 332.57 194.79 331.886 195.713 C 331.238 196.513 330.424 197.164 329.501 197.621 C 328.489 198.107 327.412 198.444 326.304 198.623 C 325.244 198.761 324.176 198.833 323.107 198.838 C 321.677 198.837 320.252 198.669 318.861 198.337 C 317.573 197.995 316.348 197.447 315.235 196.715 C 314.234 195.933 313.419 194.939 312.849 193.804 C 312.196 192.461 311.877 190.98 311.919 189.486 L 301.16 189.51 Z  M 345.723 206.209 L 356.864 206.209 L 356.864 184.453 L 377.38 184.453 L 377.38 206.305 L 388.568 206.305 L 388.568 155.634 L 377.428 155.634 L 377.428 175.077 L 356.911 175.077 L 356.911 155.634 L 345.627 155.634 L 345.723 206.209 Z  M 393.602 206.209 L 404.743 206.209 L 404.743 155.634 L 393.602 155.634 L 393.602 206.209 Z  M 409.848 206.209 L 420.273 206.209 L 420.416 172.286 L 441.505 206.209 L 452.646 206.209 L 452.646 155.634 L 442.197 155.634 L 442.078 189.749 L 420.941 155.634 L 409.872 155.634 L 409.848 206.209 Z " fill="#aaa"/></g><g><g><path d=" M 77.413 216.253 C 72.312 212.455 66.687 209.417 60.714 207.235 C 56.218 205.418 51.931 203.123 47.927 200.389 Q 33.613 190.417 33.613 175.65 C 33.375 169.721 35.224 163.896 38.838 159.189 C 39.474 158.399 40.159 157.651 40.889 156.947 L 20.492 161.718 C 14.565 163.09 10.87 169.005 12.238 174.934 L 29.128 247.91 C 30.501 253.826 36.4 257.517 42.321 256.164 L 50.67 254.16 L 50.026 253.993 C 44.395 252.262 38.971 249.918 33.852 247.003 L 42.655 227.537 C 49.66 233.241 58.432 236.328 67.465 236.268 C 77.008 236.268 81.779 232.857 81.779 226.082 C 81.872 222.316 80.27 218.708 77.413 216.253 L 77.413 216.253 Z  M 123.551 226.058 L 106.661 153.082 C 105.289 147.166 99.389 143.474 93.468 144.828 L 81.182 147.667 Q 83.306 148 85.381 148.454 C 90.888 149.68 96.218 151.596 101.245 154.155 L 94.089 173.24 C 88.745 168.66 81.278 166.37 71.735 166.37 Q 58.901 166.37 58.877 176.58 C 59.067 179.501 60.634 182.158 63.099 183.737 C 68.758 187.326 74.81 190.255 81.135 192.468 C 86.624 194.484 91.767 197.341 96.379 200.937 C 98.142 202.345 99.742 203.945 101.15 205.708 C 105.265 211.068 107.413 217.68 107.233 224.435 C 107.43 230.957 105.365 237.346 101.389 242.518 L 115.297 239.298 C 118.152 238.645 120.629 236.88 122.178 234.395 C 123.728 231.91 124.222 228.909 123.551 226.058 Z " fill="#aaa"/></g></g><g><g><linearGradient id="_lgradient_0" x1="0.50029205097602" y1="-0.000022648382332235428" x2="0.5002920509760198" y2="0.9992822803958981" gradientTransform="matrix(69.853,0,0,99.716,11.954,255.379)" gradientUnits="userSpaceOnUse"><stop offset="0%" stop-opacity="0.3" style="stop-color:#aaa"/><stop offset="2%" stop-opacity="0.28" style="stop-color:#aaa"/><stop offset="28.000000000000004%" stop-opacity="0.13" style="stop-color:#aaa"/><stop offset="48%" stop-opacity="0.04" style="stop-color:#aaa"/><stop offset="60%" stop-opacity="0" style="stop-color:#aaa"/></linearGradient><path d=" M 67.513 275.631 C 58.473 275.548 49.686 278.609 42.655 284.29 L 33.9 264.752 C 39.035 261.836 44.475 259.492 50.122 257.762 L 50.766 257.596 L 42.392 255.663 C 36.451 254.295 30.524 258 29.152 263.941 L 12.238 337.084 C 10.87 343.026 14.576 348.952 20.516 350.324 L 40.937 355.095 C 40.206 354.384 39.521 353.627 38.885 352.829 C 35.226 348.139 33.327 342.314 33.518 336.368 Q 33.518 321.578 47.832 311.582 C 51.843 308.839 56.138 306.535 60.642 304.711 C 66.666 302.533 72.34 299.487 77.485 295.67 C 80.321 293.204 81.905 289.598 81.803 285.841 C 81.85 278.971 77.079 275.631 67.513 275.631 Z " fill="url(#_lgradient_0)"/><linearGradient id="_lgradient_1" x1="0.5001826082101821" y1="0.00024307504866682983" x2="0.5001826082101819" y2="1.0000107502147653" gradientTransform="matrix(65.008,0,0,98.143,59.044,269.309)" gradientUnits="userSpaceOnUse"><stop offset="0%" stop-opacity="0.2" style="stop-color:#aaa"/><stop offset="14.000000000000002%" stop-opacity="0.13" style="stop-color:#aaa"/><stop offset="36%" stop-opacity="0.04" style="stop-color:#aaa"/><stop offset="50%" stop-opacity="0" style="stop-color:#aaa"/></linearGradient><path d=" M 115.487 272.529 L 101.555 269.309 C 105.574 274.525 107.649 280.978 107.424 287.559 C 107.604 294.333 105.448 300.962 101.317 306.334 C 99.909 308.097 98.309 309.697 96.546 311.105 C 91.92 314.712 86.761 317.577 81.254 319.598 C 74.964 321.749 68.937 324.606 63.29 328.114 C 60.819 329.69 59.243 332.347 59.044 335.271 Q 59.044 345.481 71.926 345.505 C 81.469 345.505 88.983 343.12 94.327 338.611 L 101.484 357.696 C 96.455 360.306 91.117 362.269 85.596 363.541 Q 83.52 363.994 81.397 364.328 L 93.707 367.167 C 99.641 368.536 105.564 364.843 106.947 358.912 L 123.766 285.77 C 124.429 282.916 123.929 279.915 122.376 277.431 C 120.822 274.946 118.344 273.183 115.487 272.529 Z " fill="url(#_lgradient_1)"/></g></g><g><path d=" M 163.128 223.147 L 167.231 223.147 L 177.346 249.246 L 187.414 223.147 L 191.517 223.147 L 191.517 252.872 L 188.726 252.872 L 188.726 227.155 L 178.635 252.872 L 176.01 252.872 L 165.991 227.155 L 165.991 252.872 L 163.128 252.872 L 163.128 223.147 Z  M 214.061 223.147 L 217.162 223.147 L 228.732 252.872 L 225.655 252.872 L 222.1 243.616 L 208.789 243.616 L 205.258 252.872 L 202.276 252.872 L 214.061 223.147 Z  M 209.648 241.206 L 221.146 241.206 L 215.492 225.938 L 209.648 241.206 Z  M 264.517 252.872 L 262.513 252.872 L 262.131 247.457 C 260.302 251.34 256.302 253.727 252.016 253.492 C 242.808 253.492 238.227 246.121 238.227 237.986 C 238.227 229.851 242.808 222.479 252.016 222.479 C 258.052 222.044 263.392 226.362 264.23 232.356 L 261.439 232.356 C 260.599 227.865 256.58 224.68 252.016 224.889 C 244.287 224.889 240.995 231.473 240.995 237.986 C 240.995 244.498 244.263 251.083 252.016 251.083 C 258.481 251.083 262.25 246.455 262.131 240.157 L 252.183 240.157 L 252.183 237.771 L 264.517 237.771 L 264.517 252.872 Z  M 286.584 223.147 L 289.685 223.147 L 301.16 252.896 L 298.178 252.896 L 294.623 243.64 L 281.216 243.64 L 277.685 252.896 L 274.703 252.896 L 286.584 223.147 Z  M 282.17 241.23 L 293.669 241.23 L 288.015 225.962 L 282.17 241.23 Z  M 310.583 223.147 L 331.624 223.147 L 331.624 225.533 L 312.372 250.367 L 332.029 250.367 L 332.029 252.753 L 309.271 252.753 L 309.271 250.367 L 328.523 225.533 L 310.583 225.533 L 310.583 223.147 Z  M 343.91 223.147 L 346.701 223.147 L 346.701 252.872 L 343.91 252.872 L 343.91 223.147 Z  M 360.943 223.147 L 364.044 223.147 L 381.078 248.315 L 381.078 223.147 L 383.869 223.147 L 383.869 252.872 L 380.767 252.872 L 363.734 227.704 L 363.734 252.872 L 360.943 252.872 L 360.943 223.147 Z  M 398.111 223.147 L 418.293 223.147 L 418.293 225.533 L 400.878 225.533 L 400.878 236.292 L 417.196 236.292 L 417.196 238.678 L 400.902 238.678 L 400.902 250.439 L 418.508 250.439 L 418.508 252.824 L 398.111 252.824 L 398.111 223.147 Z" fill="#aaa"/></g></g></g></svg>
