<?xml version="1.0" encoding="UTF-8" standalone="no"?><!-- Generator: Gravit.io --><svg xmlns="http://www.w3.org/2000/svg" xmlns:xlink="http://www.w3.org/1999/xlink" style="isolation:isolate" viewBox="0 0 512 512"><defs><clipPath id="_clipPath_hhboHbaHzWOL2AYfJGANKBS5tSmmsNii"><rect width="512" height="512"/></clipPath></defs><g clip-path="url(#_clipPath_hhboHbaHzWOL2AYfJGANKBS5tSmmsNii)"><g><path d=" M 16.553 71.843 C 46.389 71.421 76.282 71.862 106.137 71.67 C 110.857 71.785 115.731 71.325 120.316 72.668 C 126.821 75.93 132.27 82.818 131.867 90.378 C 132.251 100.681 122.101 109.737 111.932 108.72 C 81.252 108.663 50.552 108.778 19.853 108.663 C 11.737 109.315 3.947 103.885 1.28 96.287 C -3.305 85.83 5.329 72.649 16.553 71.843 Z "/><path d=" M 206.581 71.824 C 238.374 71.478 270.205 71.843 301.998 71.651 C 313.606 70.5 324.754 82.549 321.204 94.062 C 319.478 102.849 310.843 109.469 301.883 108.701 C 270.512 108.663 239.142 108.855 207.771 108.605 C 196.201 108.797 186.819 95.788 190.637 84.871 C 192.632 77.829 199.309 72.399 206.581 71.824 Z "/><path d=" M 394.556 71.996 C 426.963 71.267 459.428 71.939 491.854 71.651 C 501.984 70.884 512.038 79.94 510.695 90.397 C 511.482 100.528 501.908 109.565 491.911 108.644 C 460.54 108.74 429.17 108.778 397.818 108.624 C 387.304 108.874 378.075 98.647 379.533 88.209 C 379.897 80.151 386.575 72.975 394.556 71.996 Z "/><path d=" M 1.76 129.538 C 4.58 122.382 12.14 117.681 19.815 118.199 C 51.186 118.237 82.576 118.199 113.946 118.218 C 122.561 117.911 128.701 125.183 132.155 132.282 C 133.287 142.509 127.051 154.366 115.846 154.98 C 83.151 155.23 50.437 155.115 17.743 155.019 C 5.597 155.402 -4.111 140.379 1.76 129.538 Z "/><path d=" M 382.219 127.044 C 385.634 121.94 391.41 117.892 397.761 118.218 C 428.498 118.18 459.255 118.295 490.012 118.18 C 497.149 117.738 504.978 120.578 508.527 127.121 C 511.789 132.493 510.312 139.017 510.12 144.907 C 505.841 149.761 500.987 155.46 493.83 155.019 C 463.131 155.268 432.412 154.961 401.713 155.153 C 397.799 154.999 393.597 155.479 390.009 153.618 C 380.281 149.416 376.348 135.812 382.219 127.044 Z "/><path d=" M 202.494 119.062 C 205.43 117.873 208.692 118.314 211.781 118.16 C 242.48 118.333 273.179 118.141 303.879 118.237 C 315.295 118.333 324.965 131.073 320.936 142.048 C 318.864 149.378 311.707 155.326 303.955 155.057 C 271.951 155.153 239.928 155.153 207.924 155.057 C 198.062 155.652 189.428 145.905 189.869 136.33 C 189.946 128.56 195.491 121.902 202.494 119.062 Z "/><path d=" M 14.807 166.454 C 47.176 165.226 79.678 166.301 112.104 165.917 C 121.218 165.073 129.68 172.229 131.79 180.864 C 133.632 191.455 125.152 203.466 113.889 202.967 C 81.923 202.986 49.938 203.159 17.973 202.89 C 5.712 203.677 -3.958 188.039 1.664 177.314 C 3.986 171.865 9.013 167.663 14.807 166.454 Z "/><path d=" M 206.581 166.09 C 238.432 165.706 270.301 166.032 302.152 165.936 C 311.074 165.341 319.535 172.076 321.492 180.71 C 323.987 192.011 313.645 204.387 301.902 202.986 C 270.589 202.986 239.276 203.12 207.963 202.929 C 195.587 203.447 185.936 188.346 191.289 177.218 C 194.129 171.385 199.962 166.55 206.581 166.09 Z "/><path d=" M 380.377 178.388 C 383.466 170.829 391.295 165.092 399.679 165.917 C 431.088 166.013 462.498 165.783 493.907 166.032 C 504.018 165.974 510.043 175.491 512 184.336 C 510.005 189.843 508.623 196.271 503.366 199.686 C 499.126 203.351 493.273 202.909 488.055 203.025 C 457.969 202.967 427.865 203.082 397.78 202.967 C 385.442 203.734 376.348 189.555 380.377 178.388 Z "/><path d=" M 203.185 214.671 C 236.11 213.481 269.15 214.518 302.113 214.153 C 314.259 212.695 324.716 225.953 321.185 237.388 C 318.576 244.526 312.052 251.337 303.898 250.781 C 271.894 250.877 239.89 250.896 207.886 250.781 C 199.904 251.337 193.227 244.91 190.56 237.849 C 187.222 228.294 193.899 217.587 203.185 214.671 Z "/><path d=" M 10.759 215.65 C 14.135 213.865 18.107 214.326 21.772 214.115 C 52.51 214.249 83.247 214.095 113.966 214.191 C 126.322 213.654 135.781 228.217 130.735 239.384 C 127.646 245.562 121.448 251.299 114.081 250.8 C 82.038 250.858 49.996 250.896 17.935 250.762 C 6.384 251.529 -2.999 237.676 1.05 227.104 C 2.393 222.077 6.211 217.99 10.759 215.65 Z "/><path d=" M 388.992 216.302 C 393.405 213.616 398.72 214.23 403.632 214.115 C 433.679 214.326 463.706 213.98 493.753 214.249 C 503.251 213.942 511.52 222.941 510.714 232.381 C 511.578 241.801 503.308 251.069 493.734 250.743 C 461.788 250.954 429.841 250.819 397.895 250.8 C 388.033 251.529 378.823 242.108 379.571 232.285 C 379.552 225.819 383.332 219.429 388.992 216.302 Z "/><path d=" M 14.692 261.775 C 46.446 261.257 78.258 261.794 110.032 261.526 C 114.272 261.718 119.012 261.008 122.715 263.579 C 130.274 268.088 134.457 278.372 130.562 286.603 C 127.895 294.22 119.779 298.576 111.97 298.288 C 81.271 298.307 50.572 298.307 19.872 298.288 C 12.773 298.346 5.194 295.065 2.374 288.138 C -3.939 278.429 3.256 263.195 14.692 261.775 Z "/><path d=" M 202.59 262.044 C 236.302 260.969 270.109 261.833 303.859 261.602 C 310.901 260.854 317.271 265.555 319.919 271.887 C 324.178 279.485 320.974 289.481 314.393 294.643 C 309.558 297.732 303.648 298.442 298.026 298.365 C 269.265 298.23 240.504 298.326 211.743 298.326 C 204.49 298.461 196.278 296.293 192.651 289.404 C 185.994 280.003 191.75 265.114 202.59 262.044 Z "/><path d=" M 394.556 261.718 C 427.596 261.411 460.675 261.622 493.715 261.602 C 507.433 260.758 514.955 278.065 508.604 289.117 C 505.093 296.811 495.595 298.384 488.035 298.365 C 457.931 298.154 427.827 298.48 397.722 298.192 C 388.896 298.096 380.722 291.131 379.59 282.324 C 378.036 273.038 385.001 262.677 394.556 261.718 Z "/><path d=" M 204.739 308.4 C 237.089 307.44 269.534 308.246 301.921 307.997 C 309.404 307.479 316.753 312.083 320.111 318.665 C 321.07 325.438 322.452 333.976 316.753 339.118 C 312.647 343.991 306.143 345.431 300.041 345.124 C 269.304 345.008 238.566 345.315 207.828 344.989 C 197.448 345.258 188.795 334.897 189.869 324.824 C 190.522 316.899 197.026 309.992 204.739 308.4 Z "/><path d=" M 394.825 308.284 C 424.603 307.575 454.401 308.227 484.179 307.958 C 490.894 308.054 498.492 307.152 503.999 311.872 C 511.021 316.688 511.712 326.301 509.851 333.918 C 506.781 340.73 499.567 345.45 492.007 345.085 C 460.579 345.104 429.131 345.219 397.684 345.028 C 384.752 345.718 375.427 330.522 380.914 319.068 C 383.792 313.83 388.819 309.34 394.825 308.284 Z "/><path d=" M 10.893 309.685 C 14.174 307.805 18.088 308.093 21.734 307.92 C 51.761 308.054 81.789 307.958 111.836 307.977 C 119.319 307.421 126.763 311.892 130.14 318.473 C 131.1 325.38 132.462 334.033 126.821 339.367 C 123.118 343.512 117.534 345.373 112.066 345.124 C 81.309 345.085 50.533 345.181 19.757 345.066 C 12.639 345.584 5.828 341.555 2.431 335.377 C -1.291 326.263 1.069 313.868 10.893 309.685 Z "/><path d=" M 14.845 356.233 C 47.233 355.485 79.698 356.194 112.124 355.887 C 123.713 354.717 134.496 366.575 131.713 378.048 C 129.891 386.126 122.427 392.899 113.946 392.746 C 81.904 392.707 49.843 392.88 17.781 392.707 C 5.751 392.88 -3.939 378.298 1.645 367.438 C 4.005 361.951 8.744 357.115 14.845 356.233 Z "/><path d=" M 200.806 357.442 C 204.183 355.715 208.078 356.003 211.762 355.868 C 242.48 356.06 273.218 355.772 303.955 356.003 C 316.657 355.657 326.366 371.582 319.804 382.596 C 316.638 389.273 309.251 393.264 301.941 392.822 C 270.531 392.688 239.122 392.918 207.713 392.726 C 199.367 392.918 192.325 386.069 190.138 378.375 C 188.142 369.952 193.265 361.125 200.806 357.442 Z "/><path d=" M 390.604 357.154 C 394.019 355.523 398.01 356.118 401.694 355.907 C 433.007 356.098 464.359 355.657 495.653 356.098 C 509.985 357.269 515.358 376.82 506.513 386.836 C 502.771 390.731 497.495 393.149 492.046 392.784 C 460.099 392.746 428.153 392.861 396.226 392.688 C 383.812 392.65 375.926 377.626 380.991 366.901 C 383.082 362.795 386.459 359.264 390.604 357.154 Z "/><path d=" M 59.417 404.277 C 67.725 401.725 76.532 402.761 85.108 402.627 C 124.806 402.627 164.523 402.704 204.24 402.627 C 210.879 402.665 218.189 404.469 222.526 409.88 C 226.766 414.907 227.092 422.179 225.346 428.261 C 223.427 434.497 217.383 437.662 212.011 440.425 C 161.952 440.349 111.893 440.483 61.834 440.368 C 56.807 437.701 51.32 434.535 49.286 428.856 C 45.257 419.78 49.9 407.635 59.417 404.277 Z "/><path d=" M 290.313 408.978 C 294.534 403.951 301.499 402.8 307.735 402.627 C 347.395 402.704 387.073 402.627 426.733 402.627 C 435.31 402.742 444.116 401.802 452.463 404.296 C 462.133 407.769 466.93 420.26 462.344 429.431 C 460.099 434.708 454.938 437.758 450.141 440.387 C 399.986 440.406 349.851 440.406 299.715 440.406 C 294.515 437.413 288.222 434.324 286.553 428.011 C 285.152 421.622 285.229 413.794 290.313 408.978 Z "/></g></g></svg>
