<svg xmlns="http://www.w3.org/2000/svg" style="isolation:isolate" viewBox="0 0 512 512"><defs><clipPath id="a"><path d="M0 0h512v512H0z"/></clipPath></defs><g clip-path="url(#a)"><path d="M26.42 286.591c-7.328 0-13.692-2.507-18.706-7.521C2.507 274.056 0 267.692 0 260.171v-.192c0-7.521 2.507-13.885 7.714-18.899 5.207-5.207 11.57-7.714 19.284-7.714 9.449 0 16.585 3.471 21.791 10.607l-10.606 8.292c-3.471-4.05-7.135-5.978-11.378-5.978-3.471 0-6.364 1.35-8.678 3.857-2.314 2.699-3.471 5.785-3.471 9.642v.193c0 3.856 1.157 7.135 3.471 9.835 2.314 2.699 5.207 3.856 8.871 3.856 2.507 0 4.628-.578 6.364-1.542 1.736-.965 3.471-2.507 5.207-4.629l10.606 7.714c-2.7 3.664-5.785 6.557-9.449 8.485-3.664 1.929-8.1 2.893-13.306 2.893z"/><path d="M71.545 286.398c-9.642 0-17.742-2.893-24.105-8.485l7.906-9.449c5.207 4.049 10.607 6.171 16.585 6.171 3.857 0 5.785-1.157 5.785-3.472v-.192c0-1.157-.579-1.929-1.736-2.7-1.157-.772-3.471-1.543-6.942-2.314a174.943 174.943 0 0 1-7.714-2.122c-2.121-.771-4.049-1.735-5.978-2.892-1.928-1.157-3.278-2.7-4.242-4.628-.965-1.736-1.35-4.05-1.35-6.557v-.193c0-4.821 1.735-8.871 5.399-11.763 3.664-3.086 8.485-4.629 14.464-4.629 8.485 0 15.427 2.314 21.02 6.75l-6.75 10.413c-4.821-3.278-9.642-5.014-14.27-5.014-1.736 0-2.893.386-3.857.965-.965.578-1.35 1.35-1.35 2.314v.193c0 1.157.578 2.121 1.735 2.699 1.157.579 3.472 1.35 7.136 2.122 6.363 1.35 11.185 3.278 14.27 5.592 3.086 2.314 4.821 5.785 4.821 10.414v.193c0 5.206-1.928 9.256-5.592 12.149-3.857 3.085-8.871 4.435-15.235 4.435z"/><path d="M115.706 286.398c-9.642 0-17.741-2.893-24.105-8.485l7.906-9.449c5.207 4.049 10.607 6.171 16.585 6.171 3.857 0 5.785-1.157 5.785-3.472v-.192c0-1.157-.578-1.929-1.735-2.7-1.157-.772-3.472-1.543-6.943-2.314a174.943 174.943 0 0 1-7.714-2.122c-2.121-.771-4.049-1.735-5.978-2.892-1.928-1.157-3.278-2.7-4.242-4.628-.964-1.736-1.35-4.05-1.35-6.557v-.193c0-4.821 1.735-8.871 5.4-11.763 3.664-3.086 8.485-4.629 14.463-4.629 8.485 0 15.427 2.314 21.02 6.75l-7.135 10.028c-4.822-3.279-9.643-5.014-14.271-5.014-1.736 0-2.893.385-3.857.964-.964.578-1.35 1.35-1.35 2.314v.193c0 1.157.579 2.121 1.736 2.7 1.157.578 3.471 1.35 7.135 2.121 6.364 1.35 11.185 3.278 14.271 5.592 3.085 2.315 4.821 5.786 4.821 10.414v.193c0 5.207-1.929 9.256-5.593 12.149-3.471 3.471-8.485 4.821-14.849 4.821zM152.154 285.627l21.791-51.682h13.692l21.791 51.682h-15.234l-3.664-9.064h-19.67l-3.665 9.064h-15.041zm22.755-20.249h11.571l-5.785-14.656-5.786 14.656zM224.47 286.012l-17.163-51.682h15.042l8.871 29.698 9.835-29.891h12.149l9.835 29.891 8.871-29.698h14.656l-17.163 51.682h-11.957l-10.413-29.505-10.221 29.505H224.47zM284.83 285.627l21.791-51.682h13.692l21.985 51.682h-15.235l-3.664-9.064h-19.863l-3.664 9.064H284.83zm22.756-20.249h11.57l-5.785-14.656-5.785 14.656zM343.647 285.627V234.33h24.299c7.521 0 13.113 1.929 16.777 5.593 3.086 2.892 4.628 6.942 4.628 11.956v.193c0 7.521-3.471 12.728-10.606 15.813l12.149 17.935h-16.392l-10.413-15.621h-6.364v15.621h-14.078v-.193zm14.078-26.806h9.449c2.315 0 4.243-.578 5.593-1.542 1.35-1.157 1.928-2.507 1.928-4.436v-.193c0-1.928-.578-3.471-1.928-4.628-1.35-.964-3.278-1.543-5.593-1.543h-9.449v12.342zM392.63 285.627V234.33h19.863c9.063 0 16.006 2.314 21.212 6.943 5.207 4.628 7.714 10.799 7.714 18.32v.193c0 7.521-2.7 13.692-7.906 18.513-5.207 4.821-12.342 7.135-21.406 7.135H392.63v.193zm14.077-12.728h5.786c4.242 0 7.713-1.157 10.22-3.471 2.507-2.314 3.857-5.4 3.857-9.642 0-4.05-1.35-7.136-3.857-9.45-2.507-2.314-5.978-3.471-10.22-3.471h-5.786v26.034zM465.139 286.398c-9.642 0-17.742-2.893-24.105-8.485l7.906-9.449c5.207 4.049 10.607 6.171 16.585 6.171 3.857 0 5.785-1.157 5.785-3.472v-.192c0-1.157-.579-1.929-1.736-2.7-1.157-.772-3.471-1.543-6.942-2.314a174.943 174.943 0 0 1-7.714-2.122c-1.928-.578-4.049-1.735-5.978-2.892-1.928-1.157-3.278-2.7-4.242-4.628-.965-1.736-1.35-4.05-1.35-6.557v-.193c0-4.821 1.735-8.871 5.399-11.763 3.664-3.086 8.485-4.629 14.464-4.629 8.485 0 15.427 2.314 21.02 6.75l-7.136 10.028c-4.821-3.279-9.642-5.014-14.27-5.014-1.736 0-2.893.385-3.857.964-.964.578-1.35 1.35-1.35 2.314v.193c0 1.157.579 2.121 1.736 2.7 1.157.771 3.471 1.35 7.135 2.121 6.364 1.35 11.185 3.278 14.27 5.592 3.086 2.315 4.821 5.786 4.821 10.414v.193c0 5.207-1.928 9.256-5.592 12.149-3.664 3.471-8.678 4.821-14.849 4.821z"/><g><path d="M498.501 250.336c-4.628 0-8.292-3.857-8.292-8.292 0-4.628 3.664-8.485 8.485-8.485s8.292 3.857 8.292 8.292c-.193 4.821-3.857 8.485-8.485 8.485zm0-16.006c-4.435 0-7.714 3.472-7.714 7.714 0 4.243 3.279 7.714 7.714 7.714 4.435 0 7.714-3.471 7.714-7.714 0-4.242-3.279-7.714-7.714-7.714zm1.35 8.1l2.893 3.471h-1.35l-2.7-3.471h-2.507v3.471h-.964v-8.485h3.856c1.736 0 3.086.964 3.086 2.507 0 1.543-.964 2.314-2.314 2.507zm-.772-3.857h-2.699v3.278h2.699c1.35 0 2.315-.578 2.315-1.735-.193-.965-1.157-1.543-2.315-1.543z"/></g></g></svg>
