<?xml version="1.0" encoding="UTF-8" standalone="no"?><!-- Generator: Gravit.io --><svg xmlns="http://www.w3.org/2000/svg" xmlns:xlink="http://www.w3.org/1999/xlink" style="isolation:isolate" viewBox="0 0 512 512"><defs><clipPath id="_clipPath_LpMepk26iCi675F3576h8cr2oJgc08I4"><rect width="512" height="512"/></clipPath></defs><g clip-path="url(#_clipPath_LpMepk26iCi675F3576h8cr2oJgc08I4)"><path d=" M 219.656 339.338 L 203.744 335.381 L 203.559 335.306 C 201.656 334.672 200.513 333.321 200.513 331.085 C 200.513 331.021 200.504 330.984 200.499 330.928 L 200.499 254.866 C 200.499 192.402 149.727 178.901 116.514 178.901 C 100.995 178.901 81.82 182.919 65.454 192.397 L 61.381 182.479 L 0 189.088 L 0 213.165 L 27.201 217.816 C 28.686 218.436 29.631 219.543 29.811 221.255 L 29.811 267.552 L 29.857 267.497 L 29.857 331.146 C 29.857 333.386 28.714 334.737 26.807 335.371 C 26.685 335.416 26.565 335.465 26.446 335.519 L 11.404 339.338 L 11.404 367.848 L 98.366 367.848 L 98.366 339.338 L 83.819 335.274 C 82.07 334.598 81.019 333.284 81.019 331.146 L 81.01 331.048 L 81.01 253.709 C 81.01 221.32 110.219 221.32 116.37 221.32 L 116.518 221.32 C 121.808 221.32 131.44 222.278 138.975 227.726 C 145.07 232.104 149.796 239.375 149.796 251.395 L 149.796 298.895 L 149.787 298.895 L 149.787 330.669 C 149.759 330.806 149.746 330.946 149.745 331.085 C 149.745 333.321 148.606 334.672 146.704 335.306 L 146.672 335.325 L 132.292 339.338 L 132.292 367.848 L 219.661 367.848 L 219.661 339.338 L 219.656 339.338 Z  M 266.467 253.714 C 266.467 221.32 295.477 221.32 301.587 221.32 C 311.13 221.32 334.795 224.402 334.795 251.395 L 334.795 253.829 L 266.467 253.709 L 266.467 253.714 Z  M 266.467 292.656 L 385.572 292.656 L 385.572 254.866 C 385.572 192.402 334.8 178.901 301.587 178.901 C 267.226 178.901 214.93 195.869 214.93 251.011 L 214.93 299.21 C 214.93 354.352 268.369 371.708 302.725 371.708 C 344.339 371.708 367.184 358.707 383.98 348.682 L 383.98 318.492 L 337.466 318.492 C 337.466 318.492 324.104 331.22 302.725 331.22 C 296.616 331.22 266.462 328.905 266.462 296.516 L 266.462 292.656 L 266.467 292.656 Z  M 456.479 317.723 L 456.479 220.959 L 504.289 220.959 L 504.289 182.761 L 456.479 182.761 L 456.479 140.292 L 404.419 145.878 L 404.419 182.761 L 387.021 182.761 L 387.021 220.959 L 404.419 220.959 L 404.419 318.492 C 404.419 369.005 450.693 369.005 466.503 369.005 C 487.711 369.005 512 357.435 512 357.435 L 512 322.731 L 484.628 322.731 C 484.628 322.731 480 328.517 468.04 328.517 C 460.329 328.517 456.479 325.434 456.479 317.723"/></g></svg>
