<svg xmlns="http://www.w3.org/2000/svg" viewBox="0 0 367.5 209.31"><title>Asset 1</title><g id="Layer_2" data-name="Layer 2"><g id="svg3974"><path d="M0,114.94v16.31C126.22,123.74,32.35,119.85,0,114.94Z"/><path d="M0,141.89v16l1.05.26C97.21,149.3,69.61,146.06,0,141.89Z"/><path d="M0,0V52.67C79.14,50,79.53,45.51,38.49,40.07l7.38-9C96.54,38.88,93.33,51.62,56.94,58c12.19,4.28,55.41,12.23,3.17,27.94,8.5,2.31,56.44,14.18-3.17,24.78,9.45,4.26,59.56,10.38,2.11,25.84,14.88,2.44,53.1,10.59,2.64,26.88,19.08,2,21.23,2.66,26.36,11.6v34.27h23.2V0Z"/><path d="M0,90.16V106.5C23.74,101.83,132.11,99.94,0,90.16Z"/><path d="M0,62.3V79.61C74.19,75.62,99.26,70.45,0,62.3Z"/><path d="M138.49,55.81H125.84V53.32h28v2.49H141.19V89.64h-2.7Z"/><path d="M160.7,53.32h2.69V70.13h23.24V53.32h2.7V89.64h-2.7v-17H163.39v17H160.7Z"/><path d="M198.77,53.32h25.84v2.49H201.47V70.08h20.8v2.49h-20.8V87.15h23.4v2.49h-26.1Z"/><path d="M127.71,110.51h12l7.18,23.81,7.93-23.93h9.82l7.94,23.93,7.17-23.81h11.82L177.86,152h-9.94l-8.23-23.69L151.41,152h-9.94Z"/><path d="M191.62,130.74v-.15c0-12.37,8.84-22.16,21.37-22.16,14.56,0,21.29,10.73,21.29,23.17,0,.94,0,2-.08,3.06H205.87c1.17,4.62,4.54,7,9.15,7,3.6,0,6.34-1.33,9.4-4.3l8.21,6.81c-4.06,5.16-9.93,8.61-18.31,8.61C201,152.74,191.62,143.82,191.62,130.74Zm28.8-3.68c-.55-4.69-3.36-7.67-7.43-7.67s-6.58,3-7.36,7.67Z"/><path d="M242.37,110.51h21.1c5.18,0,8.82,1.29,11.23,3.64a9.26,9.26,0,0,1,2.65,6.71V121c0,4.76-2.71,7.59-6.35,9.17,5,1.65,8.17,4.47,8.17,10.06v.11c0,7.06-5.76,11.35-15.58,11.35H242.37Zm23.75,12.7c0-2.3-1.82-3.53-5.17-3.53h-7.47v7.23h7.17c3.47,0,5.47-1.18,5.47-3.59Zm-3.94,11.69h-8.7v7.59h8.82c3.52,0,5.47-1.35,5.47-3.76v-.12C267.77,136.38,266,134.9,262.18,134.9Z"/><path d="M288,110.51h21.11c5.17,0,8.82,1.29,11.23,3.64a9.3,9.3,0,0,1,2.64,6.71V121c0,4.76-2.7,7.59-6.35,9.17,5,1.65,8.17,4.47,8.17,10.06v.11c0,7.06-5.76,11.35-15.57,11.35H288Zm23.75,12.7c0-2.3-1.82-3.53-5.17-3.53h-7.47v7.23h7.18c3.46,0,5.46-1.18,5.46-3.59Zm-3.94,11.69h-8.7v7.59h8.82c3.53,0,5.47-1.35,5.47-3.76v-.12C313.36,136.38,311.6,134.9,307.77,134.9Z"/><path d="M340.46,136.26l-15.7-25.75h13l8.46,15,8.53-15H367.5l-15.64,25.57v15.58h-11.4Z"/><path d="M146.33,169.25h2.6l16.91,36.57h-3l-4.61-10.17H136.84l-4.62,10.17h-2.8Zm10.79,24-9.54-21-9.6,21Z"/><path d="M165.63,169.51h3l11.41,32.31,10.63-32.42h2.08l10.63,32.42,11.42-32.31h2.8l-13.18,36.57h-2.18l-10.63-31.54L181,206.08H178.8Z"/><path d="M235.19,169.27h2.59l16.91,36.57h-2.95l-4.62-10.16H225.69l-4.61,10.16h-2.8Zm10.79,24-9.55-21-9.59,21Z"/><path d="M260.93,169.51h15.26c4.46,0,8,1.4,10.22,3.57a9.6,9.6,0,0,1,2.75,6.75v.1c0,6.07-4.52,9.55-10.64,10.38l12,15.51h-3.42l-11.57-15H263.63v15h-2.7Zm14.94,18.83c6.07,0,10.59-3.06,10.59-8.3v-.11c0-4.87-3.84-7.94-10.43-7.94h-12.4v16.35Z"/><path d="M297.18,169.51h12.09c11.41,0,19.3,7.83,19.3,18.05v.1c0,10.22-7.89,18.16-19.3,18.16H297.18Zm2.7,2.48v31.34h9.39c10.11,0,16.49-6.9,16.49-15.56v-.11c0-8.61-6.38-15.67-16.49-15.67Z"/><path d="M333.54,200.53l1.77-2c4,3.69,7.68,5.4,13,5.4s9.18-3.06,9.18-7.21v-.11c0-3.83-2-6.06-10.27-7.72-8.71-1.77-12.25-4.72-12.25-10.22v-.11c0-5.39,4.94-9.54,11.68-9.54a18.1,18.1,0,0,1,12.45,4.41l-1.71,2.12a15.68,15.68,0,0,0-10.84-4.1c-5.35,0-8.87,3.07-8.87,6.85v.11c0,3.84,2,6.17,10.57,7.93,8.41,1.71,11.94,4.72,11.94,10v.11c0,5.86-5,9.91-12,9.91C342.36,206.34,337.9,204.42,333.54,200.53Z"/></g></g></svg>