<svg xmlns="http://www.w3.org/2000/svg" style="isolation:isolate" viewBox="0 0 512 512"><defs><clipPath id="a"><path d="M0 0h512v512H0z"/></clipPath></defs><g clip-path="url(#a)"><path d="M17.708 227.134c8.613-3.822 18.641-3.264 27.412-.236-.009 2.374-.018 4.739-.018 7.113-5.341-2.583-11.328-4.006-17.271-3.273-6.65.48-13.021 4.198-16.538 9.888-4.084 6.397-4.948 14.4-3.849 21.775 1.17 7.357 5.725 14.47 12.794 17.332 8.108 3.107 17.35 1.763 24.943-2.173-.07 2.208-.079 4.416-.087 6.624-10.848 4.852-24.821 5.062-34.412-2.662C3.456 275.867.271 266.529 0 257.61v-.856c.314-3.299.532-6.641 1.449-9.844 2.173-8.553 8.142-16.163 16.259-19.776zm44.089 2.068c7.515-6.126 18.319-5.681 27.046-2.688 0 2.47-.009 4.94.096 7.401-5.611-3.203-12.462-4.267-18.702-2.47-2.741 1.039-5.577 2.741-6.476 5.717-1.004 3.779.035 8.334 3.395 10.647 6.694 5.053 15.325 7.488 20.849 14.077 3.84 4.459 4.154 11.153 1.781 16.372-2.086 4.477-6.624 7.296-11.293 8.422-7.427 1.737-15.456.812-22.29-2.548-.026-2.662-.008-5.324-.052-7.986 6.476 4.853 15.404 6.877 23.118 3.962 5.935-2.277 6.851-11.171 2.261-15.202-6.598-5.891-15.831-8.16-21.81-14.863-5.166-5.978-4.066-15.953 2.077-20.841zm50.976-3.037c7.034-2.749 14.906-1.955 21.967.28-.018 2.461-.018 4.922.008 7.383-6.842-3.613-15.874-4.957-22.603-.393-4.242 3.552-3.849 10.909.602 14.138 6.764 5.341 15.735 7.689 21.321 14.549 3.691 4.573 3.962 11.258 1.405 16.424-2.042 4.189-6.354 6.79-10.709 8.012-7.453 1.885-15.674 1.012-22.551-2.4-.392-2.61-.07-5.289-.139-7.933 6.44 4.73 15.246 6.763 22.891 3.953 6.162-2.313 7.095-11.546 2.138-15.543-6.406-5.481-15.019-7.846-20.936-13.964-3.264-3.264-4.416-8.186-3.648-12.654.899-5.455 5.149-9.967 10.254-11.852zm34.054-.82c2.374.009 4.756 0 7.147.061 12.55 18.58 24.925 37.283 37.519 55.837-1.117 1.824-2.322 3.587-3.5 5.358-13.737-20.404-27.508-40.799-41.166-61.256zm75.054-.009c2.365.018 4.739.018 7.113.061-8.475 12.445-16.8 24.995-25.152 37.51-1.257-1.737-2.47-3.5-3.631-5.297 7.244-10.744 14.391-21.557 21.67-32.274z"/><path d="M237.721 225.371c2.417-.017 4.826-.017 7.243-.009-13.666 20.405-27.412 40.757-41.026 61.196-10.752-15.762-21.251-31.706-31.994-47.476 2.417.026 4.835.026 7.261.017 8.273 12.253 16.372 24.628 24.619 36.908 11.363-16.835 22.613-33.749 33.897-50.636zm17.995-.017c2.217.008 4.443.008 6.659-.009-.052 20.404.009 40.817-.026 61.23h-6.641c0-20.404-.018-40.817.008-61.221zm22.909.008c2.348-.008 4.687-.008 7.043.009 12.855 16.774 25.885 33.417 38.758 50.173-.096-16.721-.044-33.46-.026-50.182 2.208-.008 4.416-.008 6.624.009.034 20.413-.018 40.835.026 61.248-2.208-.009-4.407-.009-6.607-.009-13.047-16.817-26.077-33.661-39.194-50.426.053 16.809.009 33.617.026 50.426-2.225 0-4.433 0-6.65.009-.017-20.422-.008-40.835 0-61.257zm68.701-.008c2.295.008 4.599.008 6.912-.009 12.908 16.721 25.867 33.408 38.766 50.129-.026-16.712.018-33.425-.017-50.129 2.234.017 4.468.017 6.711.009.018 20.421.009 40.834.009 61.256-2.208 0-4.416 0-6.615.018-13.091-16.8-26.069-33.696-39.221-50.444.044 16.818-.017 33.626.079 50.444-2.225-.018-4.451-.018-6.676-.018.061-20.422-.044-40.835.052-61.256zm68.57.008c12.506-.008 25.021-.008 37.527 0 0 2.086 0 4.163.035 6.249-10.298-.078-20.596-.017-30.886-.026-.026 6.999-.009 14.007-.009 21.015 8.527-.052 17.053-.017 25.58-.026v6.109c-8.527.017-17.053-.035-25.58.026-.008 7.252.009 14.496-.008 21.748 10.734-.017 21.469-.008 32.212-.008-.026 2.051-.026 4.11-.044 6.161-12.942-.009-25.876.026-38.81-.017-.026-20.413.009-40.826-.017-61.231zm51.988-.017c7.209.052 14.417-.052 21.635.044 4.957.139 10.053 1.78 13.562 5.419 6.755 6.869 5.245 19.881-2.994 24.925-1.806 1.109-3.822 1.798-5.786 2.557 3.57 2.208 5.586 6.04 7.602 9.574 3.307 6.275 6.842 12.419 10.097 18.72-2.575.044-5.149.044-7.715 0-3.168-5.961-6.283-11.948-9.425-17.917-1.693-3.177-3.84-6.336-7.279-7.776-4.311-.742-8.692-.384-13.038-.463-.009 8.736.008 17.464-.009 26.191-2.217-.009-4.433-.009-6.641-.009-.009-20.422 0-40.843-.009-61.265zm6.633 6.223c.078 7.566-.035 15.133.061 22.69 6.056-.27 12.279.742 18.205-.864 7.043-2.033 9.879-11.476 5.847-17.358-2.182-3.212-6.258-4.294-9.932-4.416-4.73-.114-9.46-.009-14.181-.052z"/></g></svg>
