<svg xmlns="http://www.w3.org/2000/svg" viewBox="0 0 605 76"><g fill="#fff"><path d="M20.29 3.35c9.87-4.38 21.36-3.74 31.41-.27-.01 2.72-.02 5.43-.02 8.15-6.12-2.96-12.98-4.59-19.79-3.75-7.62.55-14.92 4.81-18.95 11.33-4.68 7.33-5.67 16.5-4.41 24.95 1.34 8.43 6.56 16.58 14.66 19.86 9.29 3.56 19.88 2.02 28.58-2.49-.08 2.53-.09 5.06-.1 7.59-12.43 5.56-28.44 5.8-39.43-3.05C3.96 59.19.31 48.49 0 38.27v-.98c.36-3.78.61-7.61 1.66-11.28 2.49-9.8 9.33-18.52 18.63-22.66zM70.81 5.72C79.42-1.3 91.8-.79 101.8 2.64c0 2.83-.01 5.66.11 8.48-6.43-3.67-14.28-4.89-21.43-2.83-3.14 1.19-6.39 3.14-7.42 6.55-1.15 4.33.04 9.55 3.89 12.2 7.67 5.79 17.56 8.58 23.89 16.13 4.4 5.11 4.76 12.78 2.04 18.76-2.39 5.13-7.59 8.36-12.94 9.65-8.51 1.99-17.71.93-25.54-2.92-.03-3.05-.01-6.1-.06-9.15 7.42 5.56 17.65 7.88 26.49 4.54 6.8-2.61 7.85-12.8 2.59-17.42-7.56-6.75-18.14-9.35-24.99-17.03-5.92-6.85-4.66-18.28 2.38-23.88zM129.22 2.24c8.06-3.15 17.08-2.24 25.17.32-.02 2.82-.02 5.64.01 8.46-7.84-4.14-18.19-5.68-25.9-.45-4.86 4.07-4.41 12.5.69 16.2 7.75 6.12 18.03 8.81 24.43 16.67 4.23 5.24 4.54 12.9 1.61 18.82-2.34 4.8-7.28 7.78-12.27 9.18-8.54 2.16-17.96 1.16-25.84-2.75-.45-2.99-.08-6.06-.16-9.09 7.38 5.42 17.47 7.75 26.23 4.53 7.06-2.65 8.13-13.23 2.45-17.81-7.34-6.28-17.21-8.99-23.99-16-3.74-3.74-5.06-9.38-4.18-14.5 1.03-6.25 5.9-11.42 11.75-13.58zM168.24 1.3c2.72.01 5.45 0 8.19.07 14.38 21.29 28.56 42.72 42.99 63.98-1.28 2.09-2.66 4.11-4.01 6.14-15.74-23.38-31.52-46.75-47.17-70.19zM254.24 1.29c2.71.02 5.43.02 8.15.07-9.71 14.26-19.25 28.64-28.82 42.98-1.44-1.99-2.83-4.01-4.16-6.07 8.3-12.31 16.49-24.7 24.83-36.98z"/><path d="M272.39 1.33c2.77-.02 5.53-.02 8.3-.01-15.66 23.38-31.41 46.7-47.01 70.12-12.32-18.06-24.35-36.33-36.66-54.4 2.77.03 5.54.03 8.32.02 9.48 14.04 18.76 28.22 28.21 42.29 13.02-19.29 25.91-38.67 38.84-58.02zM293.01 1.31c2.54.01 5.09.01 7.63-.01-.06 23.38.01 46.77-.03 70.16H293c0-23.38-.02-46.77.01-70.15zM319.26 1.32c2.69-.01 5.37-.01 8.07.01 14.73 19.22 29.66 38.29 44.41 57.49-.11-19.16-.05-38.34-.03-57.5 2.53-.01 5.06-.01 7.59.01.04 23.39-.02 46.79.03 70.18-2.53-.01-5.05-.01-7.57-.01-14.95-19.27-29.88-38.57-44.91-57.78.06 19.26.01 38.52.03 57.78-2.55 0-5.08 0-7.62.01-.02-23.4-.01-46.79 0-70.19zM397.98 1.31c2.63.01 5.27.01 7.92-.01 14.79 19.16 29.64 38.28 44.42 57.44-.03-19.15.02-38.3-.02-57.44 2.56.02 5.12.02 7.69.01.02 23.4.01 46.79.01 70.19-2.53 0-5.06 0-7.58.02-15-19.25-29.87-38.61-44.94-57.8.05 19.27-.02 38.53.09 57.8-2.55-.02-5.1-.02-7.65-.02.07-23.4-.05-46.79.06-70.19zM476.55 1.32c14.33-.01 28.67-.01 43 0 0 2.39 0 4.77.04 7.16-11.8-.09-23.6-.02-35.39-.03-.03 8.02-.01 16.05-.01 24.08 9.77-.06 19.54-.02 29.31-.03v7c-9.77.02-19.54-.04-29.31.03-.01 8.31.01 16.61-.01 24.92 12.3-.02 24.6-.01 36.91-.01-.03 2.35-.03 4.71-.05 7.06-14.83-.01-29.65.03-44.47-.02-.03-23.39.01-46.78-.02-70.16zM536.12 1.3c8.26.06 16.52-.06 24.79.05 5.68.16 11.52 2.04 15.54 6.21 7.74 7.87 6.01 22.78-3.43 28.56-2.07 1.27-4.38 2.06-6.63 2.93 4.09 2.53 6.4 6.92 8.71 10.97 3.79 7.19 7.84 14.23 11.57 21.45-2.95.05-5.9.05-8.84 0-3.63-6.83-7.2-13.69-10.8-20.53-1.94-3.64-4.4-7.26-8.34-8.91-4.94-.85-9.96-.44-14.94-.53-.01 10.01.01 20.01-.01 30.01-2.54-.01-5.08-.01-7.61-.01-.01-23.4 0-46.8-.01-70.2m7.6 7.13c.09 8.67-.04 17.34.07 26 6.94-.31 14.07.85 20.86-.99 8.07-2.33 11.32-13.15 6.7-19.89-2.5-3.68-7.17-4.92-11.38-5.06-5.42-.13-10.84-.01-16.25-.06z"/></g></svg>
