<svg xmlns="http://www.w3.org/2000/svg" style="isolation:isolate" viewBox="0 0 512 512"><defs><clipPath id="a"><path d="M0 0h512v512H0z"/></clipPath></defs><g clip-path="url(#a)"><path d="M2.194 253.44c1.829-9.326 10.057-15.909 21.76-15.909 13.532 0 23.955 5.669 23.955 23.955v34.011h-11.52l-1.463-7.314c-4.023 4.937-9.326 8.228-17.555 8.228C7.68 296.411 0 290.377 0 279.04s10.057-18.651 24.32-18.651h9.509v-2.56c0-6.4-4.755-8.412-10.058-8.412-4.022 0-8.045 1.28-9.874 6.583l-11.703-2.56zm18.469 31.086c6.4 0 13.166-4.389 13.166-11.703v-1.097h-9.326c-6.034-.183-9.692 2.194-9.692 7.131 0 2.743 2.012 5.669 5.852 5.669zm255.451-31.086c1.829-9.326 10.057-15.909 21.76-15.909 13.532 0 23.955 5.669 23.955 23.955v34.011h-11.52l-1.463-7.314c-4.023 4.937-9.326 8.228-17.555 8.228-9.691 0-17.371-6.034-17.371-17.371s10.057-18.651 24.32-18.651h9.509v-2.56c0-6.4-4.755-8.412-10.058-8.412-4.022 0-8.045 1.28-9.874 6.583l-11.703-2.56zm18.469 31.086c6.4 0 13.166-4.389 13.166-11.703v-1.097h-9.326c-6.034 0-9.692 2.194-9.692 7.314 0 2.56 2.012 5.486 5.852 5.486zm40.046 11.154v-57.234h14.08v9.325c4.022-6.765 10.422-10.24 16.822-10.24 2.56 0 4.572.366 6.949 1.098l-2.56 12.982c-1.646-1.097-3.474-1.645-5.851-1.645-8.229 0-15.36 6.765-15.36 25.234v20.297l-14.08.183zm67.84-58.149c5.851 0 11.337 2.926 13.897 6.035v-28.16h14.08v80.274h-14.08v-5.851c-1.646 2.925-6.766 6.765-13.897 6.765-17.189 0-25.966-11.885-25.966-29.44 0-17.554 8.777-29.623 25.966-29.623zm2.011 46.995c7.314 0 13.166-6.035 13.166-17.372s-5.852-17.371-13.166-17.371-13.166 6.034-13.166 17.371 5.852 17.372 13.166 17.372zm76.8-37.852l-8.411 7.68c-2.56-3.474-6.4-4.937-9.509-4.937-2.743 0-5.303 1.646-5.303 4.754 0 2.56 2.012 4.389 5.486 5.486 7.863 2.926 20.663 5.303 20.663 17.554 0 10.423-7.863 19.018-20.297 19.018-11.886 0-19.932-8.412-22.675-15.36l11.155-6.035c2.011 5.486 5.851 9.509 11.52 9.509 4.388 0 7.131-2.012 7.131-6.217 0-4.755-7.314-5.852-14.263-8.777-6.217-2.56-11.52-6.583-11.52-15.36 0-8.778 7.132-16.64 18.286-16.64 7.497 0 14.263 3.84 17.737 9.325zm-292.937-8.228l-10.057 39.314-9.692-39.314h-13.165l-9.509 39.314-8.046-22.857-.914 2.743-4.571 14.628 7.314 23.406h12.434l9.874-36.937 9.875 36.937h12.434l18.286-57.234h-14.263zm68.023 0l-10.24 39.314-9.692-39.314h-13.165l-9.509 39.314-8.046-22.857-.914 2.743-4.571 14.628 7.314 23.406h12.434l9.874-36.937 9.875 36.937h12.434l18.286-57.234h-14.08zm-121.6 0l-18.286 57.051h-12.434l-9.875-36.937-9.874 37.12H71.863l-18.286-57.051H67.84l10.24 39.131 9.691-39.131h12.983l9.692 39.131 10.24-39.131 14.08-.183zm367.725 38.765c5.486 0 9.509 4.023 9.509 9.509 0 5.486-4.023 9.509-9.509 9.509-5.485 0-9.508-4.023-9.508-9.509 0-5.486 4.206-9.509 9.508-9.509z"/></g></svg>
