<svg viewBox="0 0 280 44.3"><path d="M1.2 20.8c1-5.1 5.5-8.7 11.9-8.7 7.4 0 13.1 3.1 13.1 13.1v18.6h-6.3l-.8-4c-2.2 2.7-5.1 4.5-9.6 4.5C4.2 44.3 0 41 0 34.8s5.5-10.2 13.3-10.2h5.2v-1.4c0-3.5-2.6-4.6-5.5-4.6-2.2 0-4.4.7-5.4 3.6l-6.4-1.4zm10.1 17c3.5 0 7.2-2.4 7.2-6.4v-.6h-5.1c-3.3-.1-5.3 1.2-5.3 3.9 0 1.5 1.1 3.1 3.2 3.1zM151 20.8c1-5.1 5.5-8.7 11.9-8.7 7.4 0 13.1 3.1 13.1 13.1v18.6h-6.3l-.8-4c-2.2 2.7-5.1 4.5-9.6 4.5-5.3 0-9.5-3.3-9.5-9.5s5.5-10.2 13.3-10.2h5.2v-1.4c0-3.5-2.6-4.6-5.5-4.6-2.2 0-4.4.7-5.4 3.6l-6.4-1.4zm10.1 17c3.5 0 7.2-2.4 7.2-6.4v-.6h-5.1c-3.3 0-5.3 1.2-5.3 4 0 1.4 1.1 3 3.2 3zM183 43.9V12.6h7.7v5.1c2.2-3.7 5.7-5.6 9.2-5.6 1.4 0 2.5.2 3.8.6l-1.4 7.1c-.9-.6-1.9-.9-3.2-.9-4.5 0-8.4 3.7-8.4 13.8v11.1l-7.7.1zM220.1 12.1c3.2 0 6.2 1.6 7.6 3.3V0h7.7v43.9h-7.7v-3.2c-.9 1.6-3.7 3.7-7.6 3.7-9.4 0-14.2-6.5-14.2-16.1s4.8-16.2 14.2-16.2zm1.1 25.7c4 0 7.2-3.3 7.2-9.5s-3.2-9.5-7.2-9.5-7.2 3.3-7.2 9.5 3.2 9.5 7.2 9.5zM263.2 17.1l-4.6 4.2c-1.4-1.9-3.5-2.7-5.2-2.7-1.5 0-2.9.9-2.9 2.6 0 1.4 1.1 2.4 3 3 4.3 1.6 11.3 2.9 11.3 9.6 0 5.7-4.3 10.4-11.1 10.4-6.5 0-10.9-4.6-12.4-8.4l6.1-3.3c1.1 3 3.2 5.2 6.3 5.2 2.4 0 3.9-1.1 3.9-3.4 0-2.6-4-3.2-7.8-4.8-3.4-1.4-6.3-3.6-6.3-8.4s3.9-9.1 10-9.1c4.1 0 7.8 2.1 9.7 5.1zM103 12.6l-5.5 21.5-5.3-21.5H85l-5.2 21.5-4.4-12.5-.5 1.5-2.5 8 4 12.8h6.8l5.4-20.2L94 43.9h6.8l10-31.3zM140.2 12.6l-5.6 21.5-5.3-21.5h-7.2l-5.2 21.5-4.4-12.5-.5 1.5-2.5 8 4 12.8h6.8l5.4-20.2 5.4 20.2h6.8l10-31.3zM73.7 12.6l-10 31.2h-6.8l-5.4-20.2-5.4 20.3h-6.8l-10-31.2h7.8l5.6 21.4L48 12.7h7.1l5.3 21.4L66 12.7l7.7-.1zM274.8 33.8c3 0 5.2 2.2 5.2 5.2s-2.2 5.2-5.2 5.2-5.2-2.2-5.2-5.2 2.3-5.2 5.2-5.2z" class="logo-fill"/></svg>
