<svg xmlns="http://www.w3.org/2000/svg" style="isolation:isolate" viewBox="0 0 512 512"><defs><clipPath id="a"><path d="M0 0h512v512H0z"/></clipPath></defs><g clip-path="url(#a)"><path d="M0 270.329v22.723M0 307.876v22.291l1.463.362c133.97-12.33 95.517-16.844-1.463-22.653z"/><path d="M0 110.195v73.38c110.258-3.72 110.801-9.976 53.624-17.555l10.282-12.538c70.593 10.88 66.121 28.63 15.423 37.518 16.983 5.963 77.197 17.039 4.416 38.926 11.842 3.219 78.632 19.756-4.416 34.524 13.165 5.935 82.978 14.461 2.939 36 20.731 3.399 73.979 14.754 3.678 37.449 26.583 2.786 29.578 3.706 36.725 16.161v47.745h32.322v-291.61H0zM0 235.806v22.764M0 196.991v24.116M192.944 187.949H175.32v-3.469h39.009v3.469h-17.623v47.132h-3.762v-47.132zM223.887 184.48h3.748v23.42h32.377v-23.42h3.762v50.601h-3.762v-23.684h-32.377v23.684h-3.748V184.48zM276.926 184.48h36v3.469h-32.239v19.881h28.979v3.469h-28.979v20.313h32.601v3.469h-36.362V184.48zM177.925 264.157h16.719l10.003 33.172 11.048-33.339h13.681l11.062 33.339 9.989-33.172h16.468l-19.101 57.804h-13.848l-11.466-33.005-11.536 33.005h-13.848l-19.171-57.804zM266.964 292.342v-.209c0-17.234 12.316-30.874 29.773-30.874 20.285 0 29.661 14.949 29.661 32.281 0 1.309 0 2.786-.111 4.263h-39.469c1.63 6.436 6.325 9.752 12.747 9.752 5.016 0 8.833-1.853 13.096-5.99l11.438 9.487c-5.656 7.189-13.834 11.996-25.509 11.996-18.557-.056-31.626-12.483-31.626-30.706zm40.125-5.127c-.767-6.535-4.682-10.686-10.352-10.686s-9.167 4.179-10.254 10.686h20.606zM337.669 264.157h29.397c7.216 0 12.288 1.797 15.645 5.071a12.901 12.901 0 0 1 3.692 9.349v.195c0 6.631-3.775 10.574-8.847 12.775 6.966 2.299 11.383 6.228 11.383 14.016v.153c0 9.836-8.025 15.813-21.706 15.813h-29.564v-57.372zm33.089 17.694c0-3.205-2.536-4.918-7.203-4.918h-10.407v10.073h9.989c4.834 0 7.621-1.644 7.621-5.002v-.153zm-5.49 16.286h-12.12v10.575h12.288c4.904 0 7.62-1.881 7.62-5.239v-.167c0-3.107-2.466-5.169-7.788-5.169zM401.241 264.157h29.41c7.203 0 12.288 1.797 15.646 5.071a12.96 12.96 0 0 1 3.678 9.349v.195c0 6.631-3.762 10.574-8.847 12.775 6.966 2.299 11.382 6.228 11.382 14.016v.153c0 9.836-8.024 15.813-21.692 15.813h-29.577v-57.372zm33.088 17.694c0-3.205-2.535-4.918-7.203-4.918h-10.407v10.073h10.003c4.821 0 7.607-1.644 7.607-5.002v-.153zm-5.489 16.286h-12.121v10.575h12.288c4.918 0 7.621-1.881 7.621-5.239v-.167c-.056-3.107-2.508-5.169-7.844-5.169h.056zM474.328 300.032l-21.873-35.875h18.111l11.787 20.898 11.884-20.898H512l-21.79 35.624v21.706h-15.882v-21.455zM203.867 345.994h3.622l23.559 50.949h-4.18l-6.422-14.169h-29.801l-6.436 14.169h-3.901l23.559-50.949zm15.032 33.436l-13.291-29.257-13.375 29.257h26.666zM230.755 346.356h4.18l15.896 45.014 14.81-45.167h2.898l14.809 45.167 15.911-45.014h3.901l-18.363 50.949h-3.037l-14.809-43.941-14.782 43.941h-3.065l-18.349-50.949zM327.666 346.021h3.608l23.559 50.95h-4.11l-6.436-14.155h-29.856l-6.423 14.155h-3.901l23.559-50.95zm15.033 33.437l-13.305-29.257-13.361 29.257h26.666zM363.527 346.356h21.26c6.214 0 11.146 1.95 14.239 4.974a13.375 13.375 0 0 1 3.831 9.404v.139c0 8.457-6.297 13.305-14.824 14.461l16.719 21.609h-4.765l-16.119-20.898h-16.579v20.898h-3.762v-50.587zm20.814 26.234c8.457 0 14.754-4.263 14.754-11.564v-.153c0-6.785-5.35-11.062-14.531-11.062h-17.275v22.779h17.052zM414.03 346.356h16.844c15.897 0 26.889 10.909 26.889 25.147v.139c0 14.239-10.992 25.301-26.889 25.301H414.03v-50.587zm3.762 3.455v43.663h13.082c14.085 0 22.974-9.613 22.974-21.678v-.154c0-11.995-8.889-21.831-22.974-21.831h-13.082zM464.687 389.573l2.466-2.787c5.573 5.141 10.7 7.524 18.112 7.524 7.411 0 12.789-4.264 12.789-10.045v-.154c0-5.335-2.786-8.442-14.308-10.755-12.135-2.466-17.067-6.576-17.067-14.239v-.153c0-7.509 6.883-13.291 16.273-13.291a25.214 25.214 0 0 1 17.345 6.144l-2.382 2.954a21.843 21.843 0 0 0-15.102-5.712c-7.454 0-12.358 4.277-12.358 9.543v.153c0 5.35 2.786 8.596 14.726 11.048 11.717 2.383 16.635 6.576 16.635 13.932v.154c0 8.164-6.966 13.806-16.719 13.806-8.122-.028-14.336-2.703-20.41-8.122z"/></g></svg>
