<svg viewBox="0 0 1187 1187" xmlns="http://www.w3.org/2000/svg"><path fill="#007acc" d="M0 0h1187v1187h-1187v-1187m883.03 541.81c-15.38.6-30.43 4.36-44.89 9.43-18.38 6.67-35.72 16.47-50.29 29.57-23.23 20.64-38.78 49.55-43.84 80.16-2.06 18.63-1.57 37.49.34 56.11 1.62 18.6 9.51 35.98 18.81 51.92 11.45 19.79 28.36 35.85 46.84 49.04 34.52 23.93 74.37 38.12 112.13 55.91 13 6.25 26.08 12.58 37.85 21 9.03 6.49 16.39 15.62 19.83 26.27 2.33 9.01 2.29 18.59.76 27.74-2.66 14.58-13.9 26.09-26.61 32.84-19.97 10.38-43.4 12.44-65.44 9.38-17.49-2.77-35.17-8.33-49.09-19.64-9.24-7.34-17.74-15.61-25.41-24.58-5.76-6.7-10.53-14.15-15.47-21.45-22.26 12.69-44.35 25.66-66.58 38.4-7.63 4.63-15.69 8.61-22.86 13.95 2.32 5.71 5.78 10.84 9.12 15.98 10.54 15.72 21.75 31.31 36.38 43.52 31.41 26.66 70.75 43.29 111.28 49.79 26.08 3.01 52.5 3.33 78.66 1.14 30.53-4.16 60.75-13.86 86.46-31.12 27.32-18.05 48.33-46.01 56.21-77.96 6.81-26.39 7-54.34 1.55-81-3.99-18.77-10.78-37.23-22.01-52.92-9.05-13.1-20.55-24.34-33.15-34.01-15.89-12.04-33.26-21.97-51-30.99-18.96-9.75-38.45-18.41-57.99-26.89-17.19-7.69-34.76-15.01-50.38-25.68-11.52-7.74-20.15-20.02-22.43-33.81-1.01-8.63-.74-17.59 2.06-25.89 3.46-10.99 11.81-20.1 22.18-24.99 15.06-7.14 32.61-7.07 48.6-3.43 13.93 3.16 26.09 11.82 34.98 22.84 5.66 6.65 9.7 14.7 16.42 20.42 13.36-8.06 26.42-16.64 39.41-25.27 14.82-9.9 29.96-19.42 43.94-30.51-2.9-6.18-7.08-11.62-11.13-17.08-9.06-11.93-18.74-23.53-30.34-33.1-19.51-16.61-43.61-27.58-68.77-32.15-21.86-3.22-44.07-4.03-66.13-2.94m-621.84 5.9c-.58 5.38-.65 10.8-.83 16.21-.57 26.8-.29 53.6-.35 80.41 51.5.01 103-.01 154.49.01l.01 438.99c36.43 0 72.85.01 109.28-.01-.02-146.31.04-292.62-.03-438.93 51.5-.14 103.01-.01 154.52-.06-.2-32.33-.54-64.66-.94-96.98-115.13-.24-230.26-.89-345.39-.48-23.58.28-47.19-.06-70.76.84z"/><g fill="#fff"><path d="M883.03 541.81c22.06-1.09 44.27-.28 66.13 2.94 25.16 4.57 49.26 15.54 68.77 32.15 11.6 9.57 21.28 21.17 30.34 33.1 4.05 5.46 8.23 10.9 11.13 17.08-13.98 11.09-29.12 20.61-43.94 30.51-12.99 8.63-26.05 17.21-39.41 25.27-6.72-5.72-10.76-13.77-16.42-20.42-8.89-11.02-21.05-19.68-34.98-22.84-15.99-3.64-33.54-3.71-48.6 3.43-10.37 4.89-18.72 14-22.18 24.99-2.8 8.3-3.07 17.26-2.06 25.89 2.28 13.79 10.91 26.07 22.43 33.81 15.62 10.67 33.19 17.99 50.38 25.68 19.54 8.48 39.03 17.14 57.99 26.89 17.74 9.02 35.11 18.95 51 30.99 12.6 9.67 24.1 20.91 33.15 34.01 11.23 15.69 18.02 34.15 22.01 52.92 5.45 26.66 5.26 54.61-1.55 81-7.88 31.95-28.89 59.91-56.21 77.96-25.71 17.26-55.93 26.96-86.46 31.12-26.16 2.19-52.58 1.87-78.66-1.14-40.53-6.5-79.87-23.13-111.28-49.79-14.63-12.21-25.84-27.8-36.38-43.52-3.34-5.14-6.8-10.27-9.12-15.98 7.17-5.34 15.23-9.32 22.86-13.95 22.23-12.74 44.32-25.71 66.58-38.4 4.94 7.3 9.71 14.75 15.47 21.45 7.67 8.97 16.17 17.24 25.41 24.58 13.92 11.31 31.6 16.87 49.09 19.64 22.04 3.06 45.47 1 65.44-9.38 12.71-6.75 23.95-18.26 26.61-32.84 1.53-9.15 1.57-18.73-.76-27.74-3.44-10.65-10.8-19.78-19.83-26.27-11.77-8.42-24.85-14.75-37.85-21-37.76-17.79-77.61-31.98-112.13-55.91-18.48-13.19-35.39-29.25-46.84-49.04-9.3-15.94-17.19-33.32-18.81-51.92-1.91-18.62-2.4-37.48-.34-56.11 5.06-30.61 20.61-59.52 43.84-80.16 14.57-13.1 31.91-22.9 50.29-29.57 14.46-5.07 29.51-8.83 44.89-9.43zM261.19 547.71c23.57-.9 47.18-.56 70.76-.84 115.13-.41 230.26.24 345.39.48.4 32.32.74 64.65.94 96.98-51.51.05-103.02-.08-154.52.06.07 146.31.01 292.62.03 438.93-36.43.02-72.85.01-109.28.01l-.01-438.99c-51.49-.02-102.99 0-154.49-.01.06-26.81-.22-53.61.35-80.41.18-5.41.25-10.83.83-16.21z"/></g></svg>
