<svg xmlns="http://www.w3.org/2000/svg" viewBox="0 0 496 496"><path d="M16 64h256v16h16V40c0-22.056-17.944-40-40-40H40C17.944 0 0 17.944 0 40v360h16V64zm0-24c0-13.232 10.768-24 24-24h208c13.232 0 24 10.768 24 24v8H16v-8zM0 456c0 22.056 17.944 40 40 40h208c22.056 0 40-17.944 40-40v-40H0v40zm16-24h256v24c0 13.232-10.768 24-24 24H40c-13.232 0-24-10.768-24-24v-24z"/><path d="M104 448h80v16h-80zM360 248c-26.472 0-48 21.528-48 48s21.528 48 48 48 48-21.528 48-48-21.528-48-48-48zm0 80c-17.648 0-32-14.352-32-32s14.352-32 32-32 32 14.352 32 32-14.352 32-32 32zM136 144c-22.056 0-40 17.944-40 40s17.944 40 40 40 40-17.944 40-40-17.944-40-40-40zm0 64c-13.232 0-24-10.768-24-24s10.768-24 24-24 24 10.768 24 24-10.768 24-24 24z"/><path d="M164.4 258.8a74.044 74.044 0 004.392-1.84l24.8 16.536 31.904-31.904-16.536-24.8a78.812 78.812 0 001.84-4.392l29.2-5.84v-45.12l-29.2-5.84a84.513 84.513 0 00-3.968-8.728l-14.16 7.448c1.848 3.528 3.352 7.104 4.44 10.608l1.416 4.536L224 174.56v18.88l-25.48 5.096-1.416 4.536c-1.088 3.504-2.584 7.072-4.44 10.608l-2.208 4.208 14.44 21.664-13.344 13.352-21.664-14.448-4.2 2.208c-3.512 1.848-7.088 3.344-10.616 4.448l-4.528 1.416L145.448 272H126.56l-5.096-25.472-4.528-1.416c-3.528-1.104-7.104-2.6-10.616-4.448l-4.2-2.208-21.664 14.448-17.984-17.992-11.312 11.312 27.264 27.264 24.8-16.536c1.456.664 2.92 1.28 4.392 1.84l5.84 29.2h45.112L164.4 258.8zM32 161.44v45.12l29.2 5.84a84.513 84.513 0 003.968 8.728l14.16-7.448c-1.848-3.528-3.352-7.104-4.44-10.608l-1.416-4.536L48 193.44v-18.88l25.48-5.096 1.416-4.536c1.088-3.504 2.584-7.072 4.44-10.608l2.208-4.208-14.44-21.664 13.352-13.352 21.672 14.448 4.2-2.216c3.504-1.84 7.072-3.336 10.6-4.44l4.528-1.416L126.552 96h18.888l5.096 25.472 4.528 1.416c3.528 1.104 7.104 2.6 10.6 4.44l4.2 2.216 21.672-14.448 17.992 17.992 11.312-11.312-27.256-27.264-24.808 16.528a82.5 82.5 0 00-4.392-1.84L158.552 80H113.44l-5.84 29.2a82.5 82.5 0 00-4.392 1.84L78.4 94.512l-31.896 31.896 16.536 24.8a78.812 78.812 0 00-1.84 4.392L32 161.44zM128 304h16v16h-16zM128 336h16v16h-16zM128 368h16v16h-16zM352 128h16v16h-16zM352 96h16v16h-16zM352 64h16v16h-16zM496 326.56v-61.12l-39.456-7.88c-.92-2.312-1.936-4.6-3.032-6.856l-14.392 7c1.504 3.104 2.832 6.272 3.92 9.44l1.504 4.328L480 278.56v34.872l-35.456 7.096-1.504 4.328a86.188 86.188 0 01-3.92 9.44l-2.008 4.12 20.072 30.104-24.664 24.664-30.112-20.064-4.12 2.008a84.644 84.644 0 01-9.44 3.92l-4.328 1.504L377.44 416h-34.88l-7.096-35.456-4.328-1.504a86.188 86.188 0 01-9.44-3.92l-4.12-2.008-30.112 20.064-29.304-29.296-11.312 11.312 38.584 38.576 33.48-22.32c.872.376 1.752.744 2.632 1.096L329.44 432h61.128l7.88-39.456c.88-.352 1.76-.72 2.632-1.096l33.48 22.32 43.224-43.208-22.328-33.488c.376-.872.744-1.752 1.096-2.632L496 326.56zM242.216 221.44l22.328 33.48c-.376.872-.744 1.752-1.096 2.632L224 265.44v61.128l39.456 7.88c.92 2.312 1.936 4.6 3.032 6.848l14.392-7a84.644 84.644 0 01-3.92-9.44l-1.504-4.328L240 313.44v-34.88l35.456-7.096 1.504-4.328a86.845 86.845 0 013.92-9.44l2.008-4.128-20.072-30.096 24.664-24.664 30.104 20.064 4.128-2a86.168 86.168 0 019.456-3.936l4.312-1.504L342.552 176h34.888l7.088 35.44 4.312 1.504a86.824 86.824 0 019.456 3.936l4.128 2 30.104-20.064 29.304 29.304 11.312-11.312-38.584-38.576-33.488 22.32a95.054 95.054 0 00-2.624-1.088L390.552 160H329.44l-7.888 39.456c-.88.352-1.76.712-2.624 1.088l-33.488-22.32-43.224 43.216z"/></svg>