<svg xmlns="http://www.w3.org/2000/svg" viewBox="0 0 512 512"><path d="M118.575 477h160a46.052 46.052 0 0 0 46-46v-54h11a6 6 0 0 0 5.973-5.424l2-20.733a96.732 96.732 0 0 0 24.667-10.38l15.918 13.182a6 6 0 0 0 8.069-.379l23.783-23.783a6 6 0 0 0 .378-8.069L403.16 305.46a98.684 98.684 0 0 0 10.408-24.636l20.44-1.994a6 6 0 0 0 5.417-5.972V239.14a6 6 0 0 0-5.425-5.972l-20.732-2a96.754 96.754 0 0 0-10.38-24.668l13.18-15.917a6 6 0 0 0-.351-8.042l-23.482-23.783a6 6 0 0 0-8.1-.406l-15.954 13.212a98.707 98.707 0 0 0-24.631-10.407l-2-20.736a6 6 0 0 0-5.967-5.422h-11V81a46.052 46.052 0 0 0-46-46h-160a46.053 46.053 0 0 0-46 46v350a46.053 46.053 0 0 0 46 46zM332.02 166.562a6 6 0 0 0 4.705 5.289 86.862 86.862 0 0 1 28.722 12.123 6 6 0 0 0 7.08-.421L387.56 171.1l15.806 16-12.493 15.1a6 6 0 0 0-.372 7.154A84.2 84.2 0 0 1 402.573 238a6 6 0 0 0 5.289 4.7l19.563 1.886v22.825l-19.27 1.9a6 6 0 0 0-5.282 4.7 86.835 86.835 0 0 1-12.122 28.722 6 6 0 0 0 .421 7.079l12.47 15.06-16.058 16.058-15.06-12.47a6 6 0 0 0-7.155-.371 84.235 84.235 0 0 1-28.647 12.073 6 6 0 0 0-4.7 5.289l-1.9 19.56h-22.818l-1.886-19.562a6 6 0 0 0-4.7-5.289 86.862 86.862 0 0 1-28.722-12.123 6 6 0 0 0-7.08.421l-15.06 12.47-16.062-16.058 12.472-15.06a6 6 0 0 0 .371-7.154A84.207 84.207 0 0 1 234.577 274a6 6 0 0 0-5.289-4.7l-19.562-1.886V244.6l19.562-1.886a6 6 0 0 0 5.289-4.7 86.851 86.851 0 0 1 12.123-28.726 6 6 0 0 0-.42-7.079l-12.472-15.06 16.058-16.058 15.06 12.47a6 6 0 0 0 7.155.371 84.218 84.218 0 0 1 28.647-12.073 6 6 0 0 0 4.7-5.289l1.9-19.562h22.818zM118.575 47h160a34.038 34.038 0 0 1 34 34v14h-14a6 6 0 0 0 0 12h14v28h-10.708a6 6 0 0 0-5.972 5.424l-2 20.733a96.732 96.732 0 0 0-24.667 10.38l-15.917-13.182a6 6 0 0 0-8.07.379l-23.783 23.783a6 6 0 0 0-.378 8.069l13.212 15.954a98.757 98.757 0 0 0-10.408 24.63l-20.735 2a6 6 0 0 0-5.424 5.972v33.717a6 6 0 0 0 5.424 5.973l20.732 2a96.792 96.792 0 0 0 10.382 24.668l-13.182 15.917a6 6 0 0 0 .378 8.069l23.783 23.783a6 6 0 0 0 8.07.379l15.954-13.212A98.685 98.685 0 0 0 293.9 350.84l2 20.736a6 6 0 0 0 5.967 5.424h10.708v16h-228V107h163a6 6 0 0 0 0-12h-163V81a34.039 34.039 0 0 1 34-34zm-34 358h228v26a34.038 34.038 0 0 1-34 34h-160a34.039 34.039 0 0 1-34-34zM267.27 107h11.115a6 6 0 0 0 0-12H267.27a6 6 0 0 0 0 12zm-68.695 349a21 21 0 1 0-21-21 21.023 21.023 0 0 0 21 21zm0-30a9 9 0 1 1-9 9 9.01 9.01 0 0 1 9-9zm48.505-170a71.646 71.646 0 1 0 71.646-71.646A71.727 71.727 0 0 0 247.08 256zm71.646-59.646A59.646 59.646 0 1 1 259.08 256a59.713 59.713 0 0 1 59.646-59.646zM306.6 277.37a6 6 0 0 0 8.383 0l34.984-34.156a6 6 0 1 0-8.383-8.586L310.79 264.69l-15.227-14.866a6 6 0 0 0-8.382 8.587zM179 237h-8.3a6 6 0 0 0 0 12h8.3a6 6 0 0 0 0-12zm-71 12h36.177a6 6 0 1 0 0-12H108a6 6 0 0 0 0 12zm71 38h-38.3a6 6 0 0 0 0 12H179a6 6 0 0 0 0-12zm-71 12h6.177a6 6 0 1 0 0-12H108a6 6 0 0 0 0 12zm67 44a6 6 0 0 0 6 6h28a6 6 0 0 0 0-12h-28a6 6 0 0 0-6 6zm-20.823-6H108a6 6 0 0 0 0 12h46.177a6 6 0 1 0 0-12zM151 195h38a6 6 0 0 0 0-12h-38a6 6 0 0 0 0 12zm-43 0h16.177a6 6 0 0 0 0-12H108a6 6 0 0 0 0 12z"/></svg>