<svg xmlns="http://www.w3.org/2000/svg" viewBox="0 0 64 64"><path d="M12 10h2v2h-2zm4 0h10v2H16zm-6 4h16v2H10zm0 4h13v2H10zm30 2h2v2h-2zm4 0h10v2H44zm-6 4h16v2H38zm0 4h13v2H38zm-29.978-.043L8 29l.022 1.043 2-.086L10 29l.02-.957zM17.4 48.043l1.218-1.586a21.842 21.842 0 0 1-8.423-14.586l-1.985.26a23.832 23.832 0 0 0 9.191 15.914zm31.85-35.738a23.9 23.9 0 0 0-12.025-6.737l-.432 1.953A21.922 21.922 0 0 1 47.8 13.7zM51.36 34H57a1 1 0 0 0 1-1V17a1 1 0 0 0-1-1h-9.8A19.925 19.925 0 0 0 32 9c-.67 0-1.337.045-2 .1V7a1 1 0 0 0-1-1H7a1 1 0 0 0-1 1v16a1 1 0 0 0 1 1h5.64A19.939 19.939 0 0 0 24 47.3v.7h-1a1 1 0 0 0-1 1v8a1 1 0 0 0 1 1h1v1a3 3 0 0 0 3 3h10a3 3 0 0 0 3-3v-1h1a1 1 0 0 0 1-1v-8a1 1 0 0 0-1-1h-1v-.7A19.937 19.937 0 0 0 51.359 34zM56 32h-9a1 1 0 0 0-.6.2L44 34v-1a1 1 0 0 0-1-1h-7V18h20zm-22 5v11h-4V37a1 1 0 0 0-.105-.447l-2.984-5.967 4.814 1.376a1.008 1.008 0 0 0 .55 0L34 31.47V33a1 1 0 0 0 1 1h.382L34.1 36.553A1 1 0 0 0 34 37zM8 8h20v14h-8a1 1 0 0 0-1 1v1l-2.4-1.8a1 1 0 0 0-.6-.2H8zm17.37 37.7A17.919 17.919 0 0 1 14.718 24h.95l3.733 2.8A1 1 0 0 0 21 26v-2h8a1 1 0 0 0 1-1V11.123A18.259 18.259 0 0 1 32 11a17.918 17.918 0 0 1 12.437 5H35a1 1 0 0 0-1 1v12.388l-2 .572-6.725-1.922a1.006 1.006 0 0 0-.875.162l-4 3 1.2 1.6 3.04-2.28L28 37.236V48h-2v-1.37a1 1 0 0 0-.631-.931zM24 50h16v2H24zm14 9a1 1 0 0 1-1 1H27a1 1 0 0 1-1-1v-1h12zm2-3H24v-2h16zm-4-8V37.236L37.618 34H42v2a1 1 0 0 0 1.6.8l3.733-2.8h1.958a17.959 17.959 0 0 1-10.66 11.7 1 1 0 0 0-.631.93V48z"/></svg>