<svg xmlns="http://www.w3.org/2000/svg" viewBox="0 0 511.999 511.999"><path d="M453.034 361.322c-2.808-1.164-6.04-.52-8.2 1.628l-82.126 82.126c-2.15 2.15-2.792 5.382-1.628 8.2s3.904 4.64 6.943 4.64h82.126c4.15 0 7.515-3.364 7.515-7.515v-82.126c-.001-3.04-1.832-5.78-4.64-6.942zm-66.86 81.554l56.47-56.47v56.47h-56.47zm121.186-202.01c-2.808-1.164-6.04-.52-8.2 1.628l-22.507 22.507V111.97a7.52 7.52 0 0 0-7.515-7.515h-57.74L452.573 63.3c4.327-4.327 6.7-10.083 6.7-16.203a22.77 22.77 0 0 0-6.71-16.203L429.22 7.53c-4.327-4.327-10.083-6.7-16.203-6.7a22.8 22.8 0 0 0-16.203 6.7l-96.925 96.925H66.62V30.1a7.52 7.52 0 0 0-7.515-7.515C26.515 22.597 0 49.1 0 81.702v319.186c0 .555.064 1.095.178 1.615 1.038 13.83 7.02 26.678 17.02 36.432A56.59 56.59 0 0 0 56.927 455.1h229.638l-43.25 43.25a7.53 7.53 0 0 0-1.63 8.2c1.162 2.82 3.904 4.64 6.943 4.64h255.855c4.15 0 7.515-3.364 7.515-7.515V247.8c0-3.04-1.832-5.78-4.64-6.943zM407.443 18.16c3.072-3.074 8.077-3.074 11.15 0l23.355 23.355c3.074 3.073 3.074 8.076 0 11.15l-14.9 14.892L392.55 33.05l14.893-14.892zm-25.52 25.52l34.505 34.504-13.8 13.8-34.503-34.504 13.787-13.8zm115.05 288.573h-13.865c-4.15 0-7.515 3.364-7.515 7.515s3.364 7.515 7.515 7.515h13.865v22.646h-13.865c-4.15 0-7.515 3.364-7.515 7.515s3.364 7.515 7.515 7.515h13.865v22.645h-13.865c-4.15 0-7.515 3.364-7.515 7.515s3.364 7.515 7.515 7.515h13.865v22.646h-13.865a7.52 7.52 0 0 0-7.515 7.515c0 4.15 3.364 7.515 7.515 7.515h13.865v35.842h-230.2l75.908-75.907c2.935-2.936 2.935-7.693 0-10.628a7.57 7.57 0 0 0-1.078-.889c-2.926-2.004-6.952-1.7-9.55.9l-30.456 30.456H56.928c-22.792 0-41.14-17.794-41.862-40.545a44.19 44.19 0 0 1 .332-4.244l.003-.024c.084-.665.185-1.327.3-1.985l.04-.225c.105-.587.223-1.17.352-1.753l.112-.485a39.38 39.38 0 0 1 .37-1.468l.224-.788.345-1.14c.12-.377.25-.75.38-1.123l.28-.78a43.08 43.08 0 0 1 .577-1.462l.172-.42a44.54 44.54 0 0 1 .806-1.779l.035-.075c5.878-12.164 17.183-21.233 30.75-24.047l.114-.025c.622-.127 1.25-.236 1.882-.337l.317-.054a44.64 44.64 0 0 1 1.725-.22l.486-.06c.557-.056 1.12-.093 1.68-.128l.534-.04a44.3 44.3 0 0 1 2.223-.056c4.15 0 7.515-3.364 7.515-7.515v-54.5a7.52 7.52 0 0 0-7.515-7.515c-4.15 0-7.515 3.364-7.515 7.515v47.447c-12.7 1.605-24.47 7.265-33.757 16.335-.977.954-1.903 1.946-2.805 2.954V81.702c0-21.74 15.826-39.858 36.56-43.436V264.75a7.52 7.52 0 0 0 7.515 7.515 7.52 7.52 0 0 0 7.515-7.515V119.486h218.24l-41.544 41.544c-2.935 2.936-2.935 7.693 0 10.628s7.693 2.934 10.627 0L357.505 68.095l34.503 34.505-155.586 155.587-34.504-34.504 29.868-29.868c2.935-2.936 2.935-7.693 0-10.628s-7.693-2.934-10.627 0l-35.183 35.182a7.95 7.95 0 0 0-.53.59c-.055.068-.104.14-.156.212-.106.14-.2.283-.307.43-.055.086-.105.174-.157.263-.083.14-.163.282-.236.427a6.3 6.3 0 0 0-.135.287 6.91 6.91 0 0 0-.186.447c-.02.053-.046.103-.065.156l-24.623 69.754a7.6 7.6 0 0 0-.298 1.143H134.29c-4.15 0-7.515 3.364-7.515 7.515s3.365 7.515 7.515 7.515h208.114c4.15 0 7.515-3.364 7.515-7.515s-3.364-7.515-7.515-7.515H193.093l45.83-16.178c.038-.014.074-.033.112-.047a7.3 7.3 0 0 0 .526-.22l.205-.095a7.28 7.28 0 0 0 .531-.295l.17-.1a7.31 7.31 0 0 0 .53-.377c.043-.033.088-.062.13-.096.2-.168.414-.35.608-.543L396.38 119.484h65.255V280.03l-107.497 107.5c-2.935 2.936-2.935 7.693 0 10.628.183.183.374.355.57.516 1.378 1.123 3.06 1.685 4.743 1.685s3.366-.562 4.743-1.685a7.47 7.47 0 0 0 .571-.516L496.972 265.95v66.302zm-274.295-66.556l-21.526 7.6-14.342-14.342 7.6-21.526 28.27 28.27z"/></svg>